<?xml version="1.0" encoding="utf-8"?>
<!-- Generator: Adobe Illustrator 25.1.0, SVG Export Plug-In . SVG Version: 6.00 Build 0)  -->
<svg version="1.1" id="Layer_1" xmlns="http://www.w3.org/2000/svg" xmlns:xlink="http://www.w3.org/1999/xlink" x="0px" y="0px"
	 viewBox="0 0 128 128" style="enable-background:new 0 0 128 128;" xml:space="preserve">
<style type="text/css">
	.st0{fill:url(#SVGID_1_);}
	.st1{opacity:0.6;fill:#0A0A0A;}

	.st0, .st1 {
		filter: drop-shadow(0 0 12px rgb(245, 85, 22, 0.3));
		transform-origin: center;
		
		animation-name: scale;
		animation-duration: 4s;
		 animation-timing-function: ease-in-out;
		animation-iteration-count: infinite;
	}

	@keyframes scale {
		50% { transform: scale(1) }
		55% { transform: scale(1.1) }
		60% { transform: scale(1) }
		100% { transform: scale(1) }
	}
</style>
<linearGradient id="SVGID_1_" gradientUnits="userSpaceOnUse" x1="101.4157" y1="25.2686" x2="30.72" y2="100.399">
	<stop  offset="0" style="stop-color:#D37E4C"/>
	<stop  offset="1" style="stop-color:#EA5057"/>
</linearGradient>
<path class="st0" d="M85.5,96.2h-42C37.1,96.2,32,91,32,84.7V44.3c0-6.4,5.1-11.5,11.5-11.5h42C91.9,32.8,97,38,97,44.3v40.4
	C97,91,91.9,96.2,85.5,96.2z"/>
<g>
	<path class="st1" d="M77.3,59.7c-3.4,0-5.8,2.6-5.8,7c0,5,2.4,7,5.5,7c0.7,0,1.4-0.1,1.9-0.3V60h0C78.5,59.8,78,59.7,77.3,59.7z"/>
	<path class="st1" d="M84.4,35.5H44.5c-5.4,0-9.8,4.4-9.8,9.8v38.3c0,5.4,4.4,9.8,9.8,9.8h39.9c5.4,0,9.8-4.4,9.8-9.9V45.4
		C94.3,39.9,89.9,35.5,84.4,35.5z M65.1,77.5h-4.7c-0.3,0-0.4-0.1-0.6-0.4c-1.7-3.6-3.5-7.2-5.3-11h-0.1c-1.6,3.6-3.4,7.4-5.1,11
		c-0.1,0.2-0.3,0.3-0.5,0.3h-4.5c-0.3,0-0.3-0.2-0.2-0.4l7.4-14.1l-7.2-14.3c-0.2-0.2,0-0.4,0.2-0.4h4.7c0.3,0,0.4,0.1,0.5,0.3
		c1.7,3.6,3.4,7.3,5.1,10.9h0.1c1.6-3.6,3.3-7.3,5-10.8c0.1-0.2,0.2-0.4,0.5-0.4h4.4c0.2,0,0.3,0.2,0.2,0.4l-7.2,13.9L65.3,77
		C65.4,77.3,65.3,77.5,65.1,77.5z M83.6,76.3c-2.3,1.1-4.7,1.6-6.9,1.6c-5.9,0-10.1-3.6-10.1-11c0-6.3,4.2-11.2,10.9-11.2
		c0.6,0,0.9,0,1.4,0.1v-7.2c0-0.2,0.1-0.3,0.3-0.3h4.3c0.2,0,0.3,0.1,0.3,0.2v24.9c0,0.7,0,1.7,0.1,2.7
		C83.8,76.1,83.8,76.2,83.6,76.3z"/>
</g>
</svg>
