<?xml version="1.0" encoding="utf-8"?>
<!-- Generator: Adobe Illustrator 25.1.0, SVG Export Plug-In . SVG Version: 6.00 Build 0)  -->
<svg version="1.1" id="Layer_1" xmlns="http://www.w3.org/2000/svg" xmlns:xlink="http://www.w3.org/1999/xlink" x="0px" y="0px"
	 viewBox="0 0 128 128" style="enable-background:new 0 0 128 128;" xml:space="preserve">
<style type="text/css">
	.st0{fill:url(#SVGID_1_);}

	.st0 {
		filter: drop-shadow(0 0 12px rgb(245, 85, 22, 0.3));
		transform-origin: center;
		
		animation-name: scale;
		animation-duration: 4s;
		 animation-timing-function: ease-in-out;
		animation-iteration-count: infinite;
	}

	@keyframes scale {
		10% { transform: scale(1) }
		15% { transform: scale(1.1) }
		20% { transform: scale(1) }
		100% { transform: scale(1) }
	}
</style>
<linearGradient id="SVGID_1_" gradientUnits="userSpaceOnUse" x1="158.7128" y1="622.3679" x2="223.7599" y2="622.3679" gradientTransform="matrix(0.866 0.5 0.5 -0.866 -422.4073 496.4454)">
	<stop  offset="0" style="stop-color:#D37E4C"/>
	<stop  offset="1" style="stop-color:#EA5057"/>
</linearGradient>
<path class="st0" d="M31.5,27.1l5.9,66.5L64,101l26.6-7.4l5.9-66.5H31.5z M84.3,42.3l-2,22.1v0.1v0.3l0,0l-1.4,15.5l-0.1,1.4
	L64,86.3l0,0l0,0l-16.7-4.7l-1.1-12.8h8.2l0.6,6.5l9,2.4l0,0l0,0l9.1-2.5L74,64.8h-19L54.9,63l-0.4-4.2l-0.2-2.2h20.4l0.8-8.2H44.3
	l-0.2-1.8l-0.4-4.2l-0.2-2.2h40.8C84.4,40.1,84.3,42.3,84.3,42.3z"/>
</svg>
