<?xml version="1.0" encoding="utf-8"?>
<!-- Generator: Adobe Illustrator 25.1.0, SVG Export Plug-In . SVG Version: 6.00 Build 0)  -->
<svg version="1.1" id="Layer_1" xmlns="http://www.w3.org/2000/svg" xmlns:xlink="http://www.w3.org/1999/xlink" x="0px" y="0px"
	 viewBox="0 0 128 128" style="enable-background:new 0 0 128 128;" xml:space="preserve">
<style type="text/css">
	.st0{fill:url(#SVGID_1_);}
	.st1{opacity:0.6;fill:#0A0A0A;}

	.st0, .st1 {
		filter: drop-shadow(0 0 12px rgb(245, 85, 22, 0.3));
		transform-origin: center;
		
		animation-name: scale;
		animation-duration: 4s;
		 animation-timing-function: ease-in-out;
		animation-iteration-count: infinite;
	}

	@keyframes scale {
		45% { transform: scale(1) }
		50% { transform: scale(1.1) }
		55% { transform: scale(1) }
		100% { transform: scale(1) }
	}
</style>
<g>
	<g>
		<linearGradient id="SVGID_1_" gradientUnits="userSpaceOnUse" x1="97.3643" y1="95.6015" x2="34.7556" y2="34.9493">
			<stop  offset="0" style="stop-color:#D37E4C"/>
			<stop  offset="1" style="stop-color:#EA5057"/>
		</linearGradient>
		<path class="st0" d="M42.2,32h46c5.2,0,9.5,4.2,9.5,9.5v46c0,5.2-4.2,9.5-9.5,9.5h-46c-5.2,0-9.5-4.2-9.5-9.5v-46
			C32.7,36.2,37,32,42.2,32z"/>
		<path class="st1" d="M88.2,34.8c3.7,0,6.6,3,6.6,6.6v46c0,3.7-3,6.6-6.6,6.6h-46c-3.7,0-6.6-3-6.6-6.6v-46c0-3.7,3-6.6,6.6-6.6
			l0,0H88.2 M88.2,32h-46c-5.2,0-9.5,4.2-9.5,9.5v46c0,5.2,4.2,9.5,9.5,9.5h46c5.2,0,9.5-4.2,9.5-9.5v-46C97.7,36.2,93.5,32,88.2,32
			z"/>
		<path class="st1" d="M57.1,88.8c4.5,0,8.1-3.6,8.1-8.1v-8.1h-8.1c-4.5,0-8.1,3.6-8.1,8.1C49,85.1,52.6,88.8,57.1,88.8
			C57.1,88.8,57.1,88.8,57.1,88.8z"/>
		<path class="st1" d="M49,64.5c0-4.5,3.6-8.1,8.1-8.1h8.1v16.2h-8.1C52.6,72.6,49,68.9,49,64.5z"/>
		<path class="st1" d="M49,48.2c0-4.5,3.6-8.1,8.1-8.1h8.1v16.2h-8.1C52.6,56.3,49,52.7,49,48.2z"/>
		<path class="st1" d="M65.2,40.2h8.1c4.5,0,8.1,3.6,8.1,8.1s-3.6,8.1-8.1,8.1c0,0,0,0,0,0h-8.1V40.2z"/>
		<path class="st1" d="M81.4,64.5c0,4.5-3.6,8.1-8.1,8.1s-8.1-3.6-8.1-8.1s3.6-8.1,8.1-8.1l0,0C77.8,56.3,81.4,60,81.4,64.5z"/>
	</g>
</g>
</svg>
