<?xml version="1.0" encoding="utf-8"?>
<!-- Generator: Adobe Illustrator 25.1.0, SVG Export Plug-In . SVG Version: 6.00 Build 0)  -->
<svg version="1.1" id="Layer_1" xmlns="http://www.w3.org/2000/svg" xmlns:xlink="http://www.w3.org/1999/xlink" x="0px" y="0px"
	 viewBox="0 0 128 128" style="enable-background:new 0 0 128 128;" xml:space="preserve">
<style type="text/css">
	.st0{fill:url(#SVGID_1_);}

	.st0 {
		filter: drop-shadow(0 0 12px rgb(245, 85, 22, 0.3));
	}
</style>
<g id="Layer_1_1_">
	
		<linearGradient id="SVGID_1_" gradientUnits="userSpaceOnUse" x1="31.5063" y1="989" x2="96.5063" y2="989" gradientTransform="matrix(1 0 0 1 0 -925)">
		<stop  offset="0" style="stop-color:#D37E4C"/>
		<stop  offset="1" style="stop-color:#EA5057"/>
	</linearGradient>
	<path class="st0" d="M95.3,61.1L66.9,32.7c-1.7-1.7-4.3-1.7-5.9,0l-5.9,5.9l7.5,7.5c1.8-0.6,3.7-0.2,5.1,1.2
		c1.4,1.4,1.8,3.4,1.2,5.2l7.2,7.2c1.8-0.6,3.8-0.2,5.2,1.2c2,2,2,5.1,0,7.1s-5.1,2-7.1,0c-1.4-1.4-1.8-3.6-1.1-5.4l-6.7-6.7v17.7
		c0.5,0.3,0.9,0.6,1.3,0.9c2,2,2,5.1,0,7.1s-5.1,2-7.1,0s-2-5.1,0-7.1c0.5-0.5,1-0.8,1.7-1.1V55.4c-0.6-0.3-1.2-0.6-1.7-1.1
		c-1.5-1.5-1.8-3.6-1.1-5.5l-7.4-7.4L32.7,61c-1.7,1.7-1.7,4.3,0,5.9l28.4,28.4c1.7,1.7,4.3,1.7,5.9,0L95.3,67
		C96.9,65.4,96.9,62.8,95.3,61.1"/>
</g>
</svg>
