<svg width="1528" height="382" viewBox="0 0 1528 382" fill="none" xmlns="http://www.w3.org/2000/svg">
<g clip-path="url(#clip0_1_2)">
<rect width="1528" height="382" fill="white"/>
<path d="M0 0H1528V382H0V0Z" fill="#181818"/>
<g filter="url(#filter0_f_1_2)">
<path d="M1757.72 366.576C1961.2 373.043 1879.92 333.908 1813.84 313.532C1757.46 297.957 1602.84 266.053 1435.41 263.046C1226.13 259.287 1185.24 288.398 1456.45 299.681C1727.67 310.964 1503.36 358.493 1757.72 366.576Z" fill="#D8D8D8" fill-opacity="0.1"/>
</g>
<g filter="url(#filter1_f_1_2)">
<path d="M914.466 449.742C994.553 510.693 984.053 438.566 968.792 394.884C954.707 359.977 909.721 278.382 842.463 231.255C758.391 172.345 724.417 199.85 829.597 284.572C934.777 369.295 814.356 373.552 914.466 449.742Z" fill="#D8D8D8" fill-opacity="0.1"/>
</g>
<g filter="url(#filter2_f_1_2)">
<path d="M-43.2193 418.315C-257.555 522.762 -132.387 518.266 -43.0111 502.963C31.2908 488.062 223.358 436.186 397.213 347.89C614.532 237.52 624.694 185.56 336.133 322.059C47.5712 458.558 224.7 287.758 -43.2193 418.315Z" fill="#D8D8D8" fill-opacity="0.1"/>
</g>
<g filter="url(#filter3_f_1_2)">
<path d="M603.068 -207.845C377.57 -285.3 469.349 -200.073 543.426 -147.777C606.549 -105.844 779.152 -6.90346 964.587 53.3918C1196.38 128.761 1240.27 99.1579 939.594 -8.03583C638.912 -115.23 884.94 -111.026 603.068 -207.845Z" fill="#D8D8D8" fill-opacity="0.1"/>
</g>
<g filter="url(#filter4_f_1_2)">
<path d="M310.116 -42.083C399.027 -168.947 314.041 -147.503 260.435 -120.923C217.144 -96.7954 113.056 -21.9821 43.029 84.2538C-44.5044 217.049 -21.2119 266.862 100.901 99.9C223.013 -67.0618 198.976 116.497 310.116 -42.083Z" fill="#D8D8D8" fill-opacity="0.1"/>
</g>
<style type="text/css">
    .st0 {
		filter: drop-shadow(0 0 25px rgb(255, 255, 255, 0.3));

		animation-name: translateDown;
		animation-duration: 5s;
		animation-timing-function: ease;
		animation-iteration-count: infinite;
	}

	.st1 {
		filter: drop-shadow(0 0 25px rgb(255, 255, 255, 0.3));

		animation-name: translateUp;
		animation-duration: 5s;
		animation-timing-function: ease;
		animation-iteration-count: infinite;
	}


	@keyframes translateDown {
		0% { transform: translate(0, 0); }
		50% { transform: translate(1.5rem, 1.5rem); }
	}

	@keyframes translateUp {
		0% { transform: translate(0, 0); }
		50% { transform: translate(-1.5rem, -1.5rem); }
	}
</style>
<path class="st0" d="M792.652 133.748V80L741.483 122.935L709.941 149.401L736.407 180.943L837.148 301H890.897L767.947 154.476L792.652 133.748Z" fill="white"/>
<path class="st1" d="M739.636 268.627L766.797 301H820.549L700.199 157.574L668.657 184.04L713.169 237.088L637 301H701.057L739.636 268.627Z" fill="white"/>
<path d="M153.016 184H149.281V173.688H138.75V184H135V161.156H138.75V170.5H149.281V161.156H153.016V184ZM165.578 166.375C167.12 166.375 168.443 166.693 169.547 167.328C170.651 167.964 171.5 168.865 172.094 170.031C172.688 171.198 172.984 172.594 172.984 174.219V176.188H161.438C161.479 177.865 161.927 179.156 162.781 180.062C163.646 180.969 164.854 181.422 166.406 181.422C167.51 181.422 168.5 181.318 169.375 181.109C170.26 180.891 171.172 180.573 172.109 180.156V183.141C171.245 183.547 170.365 183.844 169.469 184.031C168.573 184.219 167.5 184.312 166.25 184.312C164.552 184.312 163.057 183.984 161.766 183.328C160.484 182.661 159.479 181.672 158.75 180.359C158.031 179.047 157.672 177.417 157.672 175.469C157.672 173.531 158 171.885 158.656 170.531C159.312 169.177 160.234 168.146 161.422 167.438C162.609 166.729 163.995 166.375 165.578 166.375ZM165.578 169.141C164.422 169.141 163.484 169.516 162.766 170.266C162.057 171.016 161.641 172.115 161.516 173.562H169.391C169.38 172.698 169.234 171.932 168.953 171.266C168.682 170.599 168.266 170.078 167.703 169.703C167.151 169.328 166.443 169.141 165.578 169.141ZM186.141 166.375C188.089 166.375 189.604 166.88 190.688 167.891C191.781 168.891 192.328 170.5 192.328 172.719V184H188.656V173.406C188.656 172.062 188.38 171.057 187.828 170.391C187.276 169.714 186.422 169.375 185.266 169.375C183.589 169.375 182.422 169.891 181.766 170.922C181.12 171.953 180.797 173.448 180.797 175.406V184H177.125V166.703H179.984L180.5 169.047H180.703C181.078 168.443 181.542 167.948 182.094 167.562C182.656 167.167 183.281 166.87 183.969 166.672C184.667 166.474 185.391 166.375 186.141 166.375ZM206.234 166.375C206.526 166.375 206.844 166.391 207.188 166.422C207.531 166.453 207.828 166.495 208.078 166.547L207.734 169.984C207.516 169.922 207.245 169.875 206.922 169.844C206.609 169.812 206.328 169.797 206.078 169.797C205.422 169.797 204.797 169.906 204.203 170.125C203.609 170.333 203.083 170.656 202.625 171.094C202.167 171.521 201.807 172.057 201.547 172.703C201.286 173.349 201.156 174.099 201.156 174.953V184H197.469V166.703H200.344L200.844 169.75H201.016C201.359 169.135 201.786 168.573 202.297 168.062C202.807 167.552 203.391 167.146 204.047 166.844C204.714 166.531 205.443 166.375 206.234 166.375ZM214.953 166.703V184H211.281V166.703H214.953ZM213.141 160.078C213.703 160.078 214.188 160.229 214.594 160.531C215.01 160.833 215.219 161.354 215.219 162.094C215.219 162.823 215.01 163.344 214.594 163.656C214.188 163.958 213.703 164.109 213.141 164.109C212.557 164.109 212.062 163.958 211.656 163.656C211.26 163.344 211.062 162.823 211.062 162.094C211.062 161.354 211.26 160.833 211.656 160.531C212.062 160.229 212.557 160.078 213.141 160.078ZM231.203 191.672V184.328C231.203 183.911 231.214 183.458 231.234 182.969C231.266 182.479 231.312 182.031 231.375 181.625H231.188C230.719 182.385 230.068 183.026 229.234 183.547C228.401 184.057 227.312 184.312 225.969 184.312C223.938 184.312 222.302 183.562 221.062 182.062C219.823 180.552 219.203 178.323 219.203 175.375C219.203 173.417 219.49 171.771 220.062 170.438C220.635 169.104 221.438 168.094 222.469 167.406C223.51 166.719 224.719 166.375 226.094 166.375C227.417 166.375 228.49 166.635 229.312 167.156C230.146 167.667 230.812 168.297 231.312 169.047H231.438L231.844 166.703H234.891V191.672H231.203ZM227.062 181.359C228.104 181.359 228.938 181.161 229.562 180.766C230.188 180.37 230.641 179.771 230.922 178.969C231.203 178.156 231.354 177.151 231.375 175.953V175.391C231.375 173.432 231.057 171.943 230.422 170.922C229.786 169.901 228.656 169.391 227.031 169.391C225.656 169.391 224.635 169.927 223.969 171C223.302 172.062 222.969 173.542 222.969 175.438C222.969 177.354 223.302 178.823 223.969 179.844C224.646 180.854 225.677 181.359 227.062 181.359ZM255.234 166.703V184H252.344L251.844 181.672H251.641C251.276 182.266 250.812 182.76 250.25 183.156C249.688 183.542 249.062 183.828 248.375 184.016C247.688 184.214 246.964 184.312 246.203 184.312C244.901 184.312 243.786 184.094 242.859 183.656C241.943 183.208 241.24 182.521 240.75 181.594C240.26 180.667 240.016 179.469 240.016 178V166.703H243.703V177.312C243.703 178.656 243.974 179.661 244.516 180.328C245.068 180.995 245.922 181.328 247.078 181.328C248.193 181.328 249.078 181.099 249.734 180.641C250.391 180.182 250.854 179.505 251.125 178.609C251.406 177.714 251.547 176.615 251.547 175.312V166.703H255.234ZM267.391 166.375C268.932 166.375 270.255 166.693 271.359 167.328C272.464 167.964 273.312 168.865 273.906 170.031C274.5 171.198 274.797 172.594 274.797 174.219V176.188H263.25C263.292 177.865 263.74 179.156 264.594 180.062C265.458 180.969 266.667 181.422 268.219 181.422C269.323 181.422 270.312 181.318 271.188 181.109C272.073 180.891 272.984 180.573 273.922 180.156V183.141C273.057 183.547 272.177 183.844 271.281 184.031C270.385 184.219 269.312 184.312 268.062 184.312C266.365 184.312 264.87 183.984 263.578 183.328C262.297 182.661 261.292 181.672 260.562 180.359C259.844 179.047 259.484 177.417 259.484 175.469C259.484 173.531 259.812 171.885 260.469 170.531C261.125 169.177 262.047 168.146 263.234 167.438C264.422 166.729 265.807 166.375 267.391 166.375ZM267.391 169.141C266.234 169.141 265.297 169.516 264.578 170.266C263.87 171.016 263.453 172.115 263.328 173.562H271.203C271.193 172.698 271.047 171.932 270.766 171.266C270.495 170.599 270.078 170.078 269.516 169.703C268.964 169.328 268.255 169.141 267.391 169.141ZM295.547 184H291.781V164.344H285.094V161.156H302.219V164.344H295.547V184ZM320.656 175.312C320.656 176.75 320.469 178.026 320.094 179.141C319.719 180.255 319.172 181.198 318.453 181.969C317.734 182.729 316.87 183.312 315.859 183.719C314.849 184.115 313.708 184.312 312.438 184.312C311.25 184.312 310.161 184.115 309.172 183.719C308.182 183.312 307.323 182.729 306.594 181.969C305.875 181.198 305.318 180.255 304.922 179.141C304.526 178.026 304.328 176.75 304.328 175.312C304.328 173.406 304.656 171.792 305.312 170.469C305.979 169.135 306.927 168.12 308.156 167.422C309.385 166.724 310.849 166.375 312.547 166.375C314.141 166.375 315.547 166.724 316.766 167.422C317.984 168.12 318.938 169.135 319.625 170.469C320.312 171.802 320.656 173.417 320.656 175.312ZM308.109 175.312C308.109 176.573 308.26 177.651 308.562 178.547C308.875 179.443 309.354 180.13 310 180.609C310.646 181.078 311.479 181.312 312.5 181.312C313.521 181.312 314.354 181.078 315 180.609C315.646 180.13 316.12 179.443 316.422 178.547C316.724 177.651 316.875 176.573 316.875 175.312C316.875 174.052 316.724 172.984 316.422 172.109C316.12 171.224 315.646 170.552 315 170.094C314.354 169.625 313.516 169.391 312.484 169.391C310.964 169.391 309.854 169.901 309.156 170.922C308.458 171.943 308.109 173.406 308.109 175.312ZM333.641 166.375C333.932 166.375 334.25 166.391 334.594 166.422C334.938 166.453 335.234 166.495 335.484 166.547L335.141 169.984C334.922 169.922 334.651 169.875 334.328 169.844C334.016 169.812 333.734 169.797 333.484 169.797C332.828 169.797 332.203 169.906 331.609 170.125C331.016 170.333 330.49 170.656 330.031 171.094C329.573 171.521 329.214 172.057 328.953 172.703C328.693 173.349 328.562 174.099 328.562 174.953V184H324.875V166.703H327.75L328.25 169.75H328.422C328.766 169.135 329.193 168.573 329.703 168.062C330.214 167.552 330.797 167.146 331.453 166.844C332.12 166.531 332.849 166.375 333.641 166.375ZM347.453 166.375C347.745 166.375 348.062 166.391 348.406 166.422C348.75 166.453 349.047 166.495 349.297 166.547L348.953 169.984C348.734 169.922 348.464 169.875 348.141 169.844C347.828 169.812 347.547 169.797 347.297 169.797C346.641 169.797 346.016 169.906 345.422 170.125C344.828 170.333 344.302 170.656 343.844 171.094C343.385 171.521 343.026 172.057 342.766 172.703C342.505 173.349 342.375 174.099 342.375 174.953V184H338.688V166.703H341.562L342.062 169.75H342.234C342.578 169.135 343.005 168.573 343.516 168.062C344.026 167.552 344.609 167.146 345.266 166.844C345.932 166.531 346.661 166.375 347.453 166.375ZM359.391 166.375C360.932 166.375 362.255 166.693 363.359 167.328C364.464 167.964 365.312 168.865 365.906 170.031C366.5 171.198 366.797 172.594 366.797 174.219V176.188H355.25C355.292 177.865 355.74 179.156 356.594 180.062C357.458 180.969 358.667 181.422 360.219 181.422C361.323 181.422 362.312 181.318 363.188 181.109C364.073 180.891 364.984 180.573 365.922 180.156V183.141C365.057 183.547 364.177 183.844 363.281 184.031C362.385 184.219 361.312 184.312 360.062 184.312C358.365 184.312 356.87 183.984 355.578 183.328C354.297 182.661 353.292 181.672 352.562 180.359C351.844 179.047 351.484 177.417 351.484 175.469C351.484 173.531 351.812 171.885 352.469 170.531C353.125 169.177 354.047 168.146 355.234 167.438C356.422 166.729 357.807 166.375 359.391 166.375ZM359.391 169.141C358.234 169.141 357.297 169.516 356.578 170.266C355.87 171.016 355.453 172.115 355.328 173.562H363.203C363.193 172.698 363.047 171.932 362.766 171.266C362.495 170.599 362.078 170.078 361.516 169.703C360.964 169.328 360.255 169.141 359.391 169.141ZM382.562 179.062C382.562 180.198 382.286 181.156 381.734 181.938C381.182 182.719 380.375 183.312 379.312 183.719C378.26 184.115 376.969 184.312 375.438 184.312C374.229 184.312 373.188 184.224 372.312 184.047C371.448 183.88 370.63 183.62 369.859 183.266V180.094C370.682 180.479 371.604 180.812 372.625 181.094C373.656 181.375 374.63 181.516 375.547 181.516C376.755 181.516 377.625 181.328 378.156 180.953C378.688 180.568 378.953 180.057 378.953 179.422C378.953 179.047 378.844 178.714 378.625 178.422C378.417 178.12 378.021 177.812 377.438 177.5C376.865 177.177 376.021 176.792 374.906 176.344C373.812 175.906 372.891 175.469 372.141 175.031C371.391 174.594 370.823 174.068 370.438 173.453C370.052 172.828 369.859 172.031 369.859 171.062C369.859 169.531 370.464 168.37 371.672 167.578C372.891 166.776 374.5 166.375 376.5 166.375C377.562 166.375 378.562 166.484 379.5 166.703C380.448 166.911 381.375 167.219 382.281 167.625L381.125 170.391C380.344 170.047 379.557 169.766 378.766 169.547C377.984 169.318 377.188 169.203 376.375 169.203C375.427 169.203 374.703 169.349 374.203 169.641C373.714 169.932 373.469 170.349 373.469 170.891C373.469 171.297 373.589 171.641 373.828 171.922C374.068 172.203 374.479 172.484 375.062 172.766C375.656 173.047 376.479 173.396 377.531 173.812C378.562 174.208 379.453 174.625 380.203 175.062C380.964 175.49 381.547 176.016 381.953 176.641C382.359 177.266 382.562 178.073 382.562 179.062Z" fill="white"/>
<path d="M116.828 232H115.219V209.156H127.719V210.609H116.828V220.344H127.125V221.781H116.828V232ZM144.109 215.016V232H142.828L142.594 228.938H142.5C142.208 229.562 141.797 230.13 141.266 230.641C140.734 231.151 140.083 231.557 139.312 231.859C138.542 232.161 137.646 232.312 136.625 232.312C135.323 232.312 134.229 232.089 133.344 231.641C132.469 231.182 131.807 230.495 131.359 229.578C130.911 228.661 130.688 227.516 130.688 226.141V215.016H132.266V225.984C132.266 227.682 132.646 228.932 133.406 229.734C134.177 230.536 135.302 230.938 136.781 230.938C138.031 230.938 139.078 230.698 139.922 230.219C140.776 229.74 141.422 229.016 141.859 228.047C142.307 227.068 142.531 225.849 142.531 224.391V215.016H144.109ZM151.422 232H149.828V207.688H151.422V232ZM158.672 232H157.078V207.688H158.672V232ZM162.781 224.078V222.625H170.531V224.078H162.781ZM187.609 226.109C187.609 227.474 187.266 228.62 186.578 229.547C185.891 230.464 184.958 231.156 183.781 231.625C182.604 232.083 181.271 232.312 179.781 232.312C178.854 232.312 178.01 232.266 177.25 232.172C176.5 232.089 175.818 231.974 175.203 231.828C174.599 231.682 174.047 231.516 173.547 231.328V229.719C174.359 230.031 175.297 230.307 176.359 230.547C177.432 230.776 178.599 230.891 179.859 230.891C181.047 230.891 182.099 230.719 183.016 230.375C183.943 230.031 184.672 229.51 185.203 228.812C185.734 228.115 186 227.234 186 226.172C186 225.234 185.776 224.469 185.328 223.875C184.891 223.271 184.229 222.755 183.344 222.328C182.458 221.891 181.344 221.448 180 221C179.062 220.677 178.208 220.339 177.438 219.984C176.677 219.62 176.026 219.203 175.484 218.734C174.943 218.255 174.526 217.682 174.234 217.016C173.953 216.339 173.812 215.542 173.812 214.625C173.812 213.365 174.13 212.307 174.766 211.453C175.411 210.589 176.281 209.938 177.375 209.5C178.479 209.052 179.719 208.828 181.094 208.828C182.188 208.828 183.224 208.932 184.203 209.141C185.193 209.339 186.146 209.641 187.062 210.047L186.5 211.438C185.583 211.042 184.667 210.75 183.75 210.562C182.833 210.375 181.927 210.281 181.031 210.281C179.958 210.281 179 210.443 178.156 210.766C177.323 211.078 176.661 211.552 176.172 212.188C175.682 212.823 175.438 213.625 175.438 214.594C175.438 215.594 175.661 216.401 176.109 217.016C176.568 217.63 177.214 218.141 178.047 218.547C178.891 218.953 179.885 219.349 181.031 219.734C182.385 220.193 183.552 220.677 184.531 221.188C185.51 221.688 186.266 222.323 186.797 223.094C187.339 223.865 187.609 224.87 187.609 226.109ZM196.688 230.953C197.177 230.953 197.63 230.917 198.047 230.844C198.474 230.771 198.849 230.677 199.172 230.562V231.875C198.839 231.99 198.448 232.089 198 232.172C197.552 232.266 197.057 232.312 196.516 232.312C195.557 232.312 194.76 232.135 194.125 231.781C193.49 231.417 193.01 230.87 192.688 230.141C192.365 229.401 192.203 228.464 192.203 227.328V216.328H189.672V215.391L192.188 214.906L192.734 210.906H193.781V215.016H199.078V216.328H193.781V227.234C193.781 228.453 194.005 229.38 194.453 230.016C194.911 230.641 195.656 230.953 196.688 230.953ZM208.75 214.719C210.615 214.719 212.01 215.188 212.938 216.125C213.865 217.062 214.328 218.557 214.328 220.609V232H213.109L212.828 229.031H212.734C212.37 229.667 211.927 230.234 211.406 230.734C210.885 231.224 210.245 231.609 209.484 231.891C208.734 232.172 207.818 232.312 206.734 232.312C205.641 232.312 204.703 232.13 203.922 231.766C203.151 231.401 202.552 230.87 202.125 230.172C201.708 229.474 201.5 228.625 201.5 227.625C201.5 225.938 202.198 224.656 203.594 223.781C204.99 222.896 206.995 222.396 209.609 222.281L212.766 222.125V220.891C212.766 219.151 212.422 217.911 211.734 217.172C211.047 216.432 210.031 216.062 208.688 216.062C207.812 216.062 206.969 216.177 206.156 216.406C205.354 216.625 204.536 216.943 203.703 217.359L203.203 216.047C204.016 215.661 204.885 215.344 205.812 215.094C206.75 214.844 207.729 214.719 208.75 214.719ZM212.75 223.359L209.781 223.484C207.625 223.589 205.984 223.974 204.859 224.641C203.734 225.307 203.172 226.307 203.172 227.641C203.172 228.714 203.505 229.536 204.172 230.109C204.849 230.682 205.786 230.969 206.984 230.969C208.849 230.969 210.271 230.438 211.25 229.375C212.24 228.312 212.74 226.865 212.75 225.031V223.359ZM226.594 232.312C224.906 232.312 223.479 231.964 222.312 231.266C221.156 230.557 220.281 229.552 219.688 228.25C219.104 226.938 218.812 225.385 218.812 223.594C218.812 221.729 219.151 220.135 219.828 218.812C220.505 217.479 221.458 216.458 222.688 215.75C223.917 215.042 225.359 214.688 227.016 214.688C227.828 214.688 228.583 214.76 229.281 214.906C229.979 215.052 230.609 215.255 231.172 215.516L230.75 216.906C230.167 216.646 229.547 216.448 228.891 216.312C228.234 216.177 227.604 216.109 227 216.109C225.604 216.109 224.417 216.417 223.438 217.031C222.469 217.635 221.724 218.5 221.203 219.625C220.693 220.74 220.438 222.057 220.438 223.578C220.438 225.005 220.656 226.271 221.094 227.375C221.531 228.469 222.203 229.333 223.109 229.969C224.016 230.594 225.177 230.906 226.594 230.906C227.417 230.906 228.198 230.823 228.938 230.656C229.688 230.49 230.37 230.276 230.984 230.016V231.453C230.432 231.703 229.792 231.906 229.062 232.062C228.344 232.229 227.521 232.312 226.594 232.312ZM236.578 207.688V219.953C236.578 220.714 236.568 221.49 236.547 222.281C236.536 223.062 236.521 223.844 236.5 224.625H236.531C236.833 224.271 237.146 223.901 237.469 223.516C237.802 223.12 238.13 222.74 238.453 222.375L245.172 215.016H247.078L240.375 222.297L247.672 232H245.781L239.297 223.344L236.578 226.203V232H235V207.688H236.578ZM276.594 220.359C276.594 222.911 276.141 225.052 275.234 226.781C274.339 228.51 273.005 229.812 271.234 230.688C269.474 231.562 267.292 232 264.688 232H259.219V209.156H265.406C267.844 209.156 269.891 209.583 271.547 210.438C273.203 211.292 274.458 212.552 275.312 214.219C276.167 215.875 276.594 217.922 276.594 220.359ZM274.906 220.422C274.906 218.245 274.552 216.427 273.844 214.969C273.135 213.51 272.052 212.417 270.594 211.688C269.135 210.948 267.286 210.578 265.047 210.578H260.828V230.578H264.609C268.057 230.578 270.635 229.734 272.344 228.047C274.052 226.349 274.906 223.807 274.906 220.422ZM287.844 214.688C289.292 214.688 290.495 215.026 291.453 215.703C292.422 216.38 293.141 217.307 293.609 218.484C294.089 219.661 294.328 221.01 294.328 222.531V223.672H282.062C282.062 226.005 282.599 227.797 283.672 229.047C284.755 230.297 286.302 230.922 288.312 230.922C289.365 230.922 290.276 230.839 291.047 230.672C291.828 230.495 292.693 230.198 293.641 229.781V231.234C292.807 231.609 291.974 231.88 291.141 232.047C290.307 232.224 289.349 232.312 288.266 232.312C286.547 232.312 285.104 231.958 283.938 231.25C282.781 230.531 281.906 229.521 281.312 228.219C280.729 226.917 280.438 225.396 280.438 223.656C280.438 221.958 280.719 220.432 281.281 219.078C281.854 217.724 282.688 216.656 283.781 215.875C284.885 215.083 286.24 214.688 287.844 214.688ZM287.828 216.047C286.203 216.047 284.885 216.589 283.875 217.672C282.875 218.745 282.286 220.297 282.109 222.328H292.688C292.688 221.089 292.51 219.995 292.156 219.047C291.802 218.099 291.266 217.365 290.547 216.844C289.839 216.312 288.932 216.047 287.828 216.047ZM302.703 232L296.188 215.016H297.859L302.219 226.594C302.49 227.292 302.729 227.964 302.938 228.609C303.156 229.245 303.339 229.823 303.484 230.344H303.562C303.729 229.823 303.917 229.24 304.125 228.594C304.344 227.948 304.583 227.281 304.844 226.594L309.203 215.016H310.891L304.359 232H302.703ZM320.156 214.688C321.604 214.688 322.807 215.026 323.766 215.703C324.734 216.38 325.453 217.307 325.922 218.484C326.401 219.661 326.641 221.01 326.641 222.531V223.672H314.375C314.375 226.005 314.911 227.797 315.984 229.047C317.068 230.297 318.615 230.922 320.625 230.922C321.677 230.922 322.589 230.839 323.359 230.672C324.141 230.495 325.005 230.198 325.953 229.781V231.234C325.12 231.609 324.286 231.88 323.453 232.047C322.62 232.224 321.661 232.312 320.578 232.312C318.859 232.312 317.417 231.958 316.25 231.25C315.094 230.531 314.219 229.521 313.625 228.219C313.042 226.917 312.75 225.396 312.75 223.656C312.75 221.958 313.031 220.432 313.594 219.078C314.167 217.724 315 216.656 316.094 215.875C317.198 215.083 318.552 214.688 320.156 214.688ZM320.141 216.047C318.516 216.047 317.198 216.589 316.188 217.672C315.188 218.745 314.599 220.297 314.422 222.328H325C325 221.089 324.823 219.995 324.469 219.047C324.115 218.099 323.578 217.365 322.859 216.844C322.151 216.312 321.245 216.047 320.141 216.047ZM332.922 232H331.328V207.688H332.922V232ZM352.656 223.484C352.656 224.797 352.495 225.995 352.172 227.078C351.849 228.151 351.37 229.078 350.734 229.859C350.099 230.641 349.307 231.245 348.359 231.672C347.422 232.099 346.328 232.312 345.078 232.312C343.891 232.312 342.833 232.104 341.906 231.688C340.979 231.26 340.193 230.656 339.547 229.875C338.911 229.094 338.427 228.167 338.094 227.094C337.76 226.01 337.594 224.807 337.594 223.484C337.594 221.661 337.896 220.094 338.5 218.781C339.115 217.458 339.99 216.448 341.125 215.75C342.271 215.042 343.641 214.688 345.234 214.688C346.88 214.688 348.25 215.062 349.344 215.812C350.448 216.552 351.276 217.583 351.828 218.906C352.38 220.229 352.656 221.755 352.656 223.484ZM339.219 223.484C339.219 224.974 339.432 226.276 339.859 227.391C340.286 228.505 340.932 229.375 341.797 230C342.672 230.625 343.776 230.938 345.109 230.938C346.474 230.938 347.594 230.625 348.469 230C349.344 229.375 349.99 228.5 350.406 227.375C350.823 226.25 351.031 224.953 351.031 223.484C351.031 222.057 350.833 220.786 350.438 219.672C350.042 218.557 349.417 217.682 348.562 217.047C347.708 216.401 346.594 216.078 345.219 216.078C343.25 216.078 341.755 216.734 340.734 218.047C339.724 219.359 339.219 221.172 339.219 223.484ZM364.875 214.688C367.062 214.688 368.755 215.422 369.953 216.891C371.161 218.359 371.766 220.526 371.766 223.391C371.766 225.307 371.479 226.932 370.906 228.266C370.333 229.589 369.516 230.594 368.453 231.281C367.401 231.969 366.135 232.312 364.656 232.312C363.635 232.312 362.745 232.161 361.984 231.859C361.234 231.547 360.609 231.13 360.109 230.609C359.609 230.078 359.224 229.495 358.953 228.859H358.844C358.875 229.453 358.901 230.073 358.922 230.719C358.943 231.365 358.953 231.974 358.953 232.547V239.516H357.359V215.016H358.672L358.859 218.406H358.953C359.234 217.76 359.63 217.151 360.141 216.578C360.651 216.005 361.297 215.547 362.078 215.203C362.859 214.859 363.792 214.688 364.875 214.688ZM364.672 216.078C363.391 216.078 362.323 216.359 361.469 216.922C360.625 217.474 359.995 218.286 359.578 219.359C359.172 220.422 358.964 221.724 358.953 223.266V223.531C358.953 225.188 359.156 226.568 359.562 227.672C359.979 228.766 360.599 229.583 361.422 230.125C362.255 230.667 363.286 230.938 364.516 230.938C365.724 230.938 366.745 230.641 367.578 230.047C368.411 229.453 369.047 228.594 369.484 227.469C369.922 226.344 370.141 224.979 370.141 223.375C370.141 220.99 369.682 219.177 368.766 217.938C367.859 216.698 366.495 216.078 364.672 216.078ZM382.844 214.688C384.292 214.688 385.495 215.026 386.453 215.703C387.422 216.38 388.141 217.307 388.609 218.484C389.089 219.661 389.328 221.01 389.328 222.531V223.672H377.062C377.062 226.005 377.599 227.797 378.672 229.047C379.755 230.297 381.302 230.922 383.312 230.922C384.365 230.922 385.276 230.839 386.047 230.672C386.828 230.495 387.693 230.198 388.641 229.781V231.234C387.807 231.609 386.974 231.88 386.141 232.047C385.307 232.224 384.349 232.312 383.266 232.312C381.547 232.312 380.104 231.958 378.938 231.25C377.781 230.531 376.906 229.521 376.312 228.219C375.729 226.917 375.438 225.396 375.438 223.656C375.438 221.958 375.719 220.432 376.281 219.078C376.854 217.724 377.688 216.656 378.781 215.875C379.885 215.083 381.24 214.688 382.844 214.688ZM382.828 216.047C381.203 216.047 379.885 216.589 378.875 217.672C377.875 218.745 377.286 220.297 377.109 222.328H387.688C387.688 221.089 387.51 219.995 387.156 219.047C386.802 218.099 386.266 217.365 385.547 216.844C384.839 216.312 383.932 216.047 382.828 216.047ZM400.766 214.719C401.214 214.719 401.635 214.745 402.031 214.797C402.427 214.849 402.797 214.922 403.141 215.016L402.891 216.469C402.547 216.375 402.198 216.307 401.844 216.266C401.49 216.214 401.109 216.188 400.703 216.188C399.901 216.188 399.182 216.339 398.547 216.641C397.922 216.943 397.391 217.375 396.953 217.938C396.516 218.5 396.182 219.177 395.953 219.969C395.724 220.76 395.609 221.646 395.609 222.625V232H394.016V215.016H395.375L395.531 218.219H395.625C395.885 217.562 396.25 216.974 396.719 216.453C397.198 215.922 397.776 215.5 398.453 215.188C399.13 214.875 399.901 214.719 400.766 214.719Z" fill="#E4E4E4"/>
<path d="M1115.1 188.032C1113.96 188.032 1112.94 188.228 1112.04 188.618C1111.15 189.001 1110.39 189.546 1109.77 190.254C1109.15 190.962 1108.68 191.808 1108.36 192.793C1108.03 193.77 1107.87 194.848 1107.87 196.028C1107.87 197.655 1108.12 199.08 1108.64 200.3C1109.15 201.513 1109.92 202.453 1110.94 203.12C1111.98 203.787 1113.26 204.121 1114.8 204.121C1115.7 204.121 1116.51 204.056 1117.24 203.926C1117.98 203.787 1118.66 203.612 1119.28 203.401V204.5C1118.69 204.719 1118.02 204.898 1117.27 205.037C1116.53 205.175 1115.66 205.244 1114.68 205.244C1112.9 205.244 1111.4 204.862 1110.19 204.097C1108.98 203.332 1108.08 202.257 1107.47 200.874C1106.86 199.491 1106.55 197.875 1106.55 196.028C1106.55 194.701 1106.74 193.485 1107.12 192.378C1107.51 191.263 1108.06 190.299 1108.8 189.485C1109.54 188.663 1110.44 188.028 1111.49 187.581C1112.55 187.125 1113.76 186.897 1115.11 186.897C1115.96 186.897 1116.78 186.982 1117.55 187.153C1118.33 187.316 1119.06 187.556 1119.75 187.874L1119.26 188.972C1118.6 188.647 1117.92 188.411 1117.23 188.264C1116.54 188.11 1115.83 188.032 1115.1 188.032ZM1123.98 205H1122.74V186.006H1123.98V205ZM1129.62 191.731V205H1128.39V191.731H1129.62ZM1129.02 186.824C1129.33 186.824 1129.56 186.917 1129.71 187.104C1129.85 187.284 1129.93 187.528 1129.93 187.837C1129.93 188.146 1129.85 188.39 1129.71 188.569C1129.56 188.748 1129.33 188.838 1129.02 188.838C1128.73 188.838 1128.51 188.748 1128.36 188.569C1128.22 188.39 1128.14 188.146 1128.14 187.837C1128.14 187.528 1128.22 187.284 1128.36 187.104C1128.51 186.917 1128.73 186.824 1129.02 186.824ZM1139.38 205.244C1138.06 205.244 1136.94 204.972 1136.03 204.426C1135.13 203.873 1134.44 203.088 1133.98 202.07C1133.52 201.045 1133.3 199.832 1133.3 198.433C1133.3 196.976 1133.56 195.731 1134.09 194.697C1134.62 193.656 1135.36 192.858 1136.32 192.305C1137.28 191.751 1138.41 191.475 1139.7 191.475C1140.34 191.475 1140.93 191.532 1141.47 191.646C1142.02 191.759 1142.51 191.918 1142.95 192.122L1142.62 193.208C1142.17 193.005 1141.68 192.85 1141.17 192.744C1140.66 192.638 1140.16 192.585 1139.69 192.585C1138.6 192.585 1137.67 192.826 1136.91 193.306C1136.15 193.778 1135.57 194.453 1135.16 195.332C1134.76 196.203 1134.57 197.232 1134.57 198.42C1134.57 199.535 1134.74 200.524 1135.08 201.387C1135.42 202.241 1135.94 202.917 1136.65 203.413C1137.36 203.901 1138.27 204.146 1139.38 204.146C1140.02 204.146 1140.63 204.08 1141.21 203.95C1141.79 203.82 1142.33 203.653 1142.81 203.45V204.573C1142.37 204.768 1141.87 204.927 1141.3 205.049C1140.74 205.179 1140.1 205.244 1139.38 205.244ZM1147.18 186.006V195.588C1147.18 196.182 1147.17 196.789 1147.15 197.407C1147.14 198.018 1147.13 198.628 1147.11 199.238H1147.14C1147.37 198.962 1147.62 198.673 1147.87 198.372C1148.13 198.062 1148.39 197.765 1148.64 197.48L1153.89 191.731H1155.38L1150.14 197.419L1155.84 205H1154.37L1149.3 198.237L1147.18 200.471V205H1145.94V186.006H1147.18ZM1168.13 204.182C1168.52 204.182 1168.87 204.154 1169.2 204.097C1169.53 204.04 1169.82 203.966 1170.08 203.877V204.902C1169.82 204.992 1169.51 205.069 1169.16 205.134C1168.81 205.208 1168.42 205.244 1168 205.244C1167.25 205.244 1166.63 205.106 1166.13 204.829C1165.64 204.544 1165.26 204.117 1165.01 203.547C1164.76 202.97 1164.63 202.237 1164.63 201.35V192.756H1162.65V192.024L1164.62 191.646L1165.05 188.521H1165.86V191.731H1170V192.756H1165.86V201.277C1165.86 202.229 1166.04 202.953 1166.39 203.45C1166.75 203.938 1167.33 204.182 1168.13 204.182ZM1183.93 198.347C1183.93 199.373 1183.8 200.308 1183.55 201.155C1183.3 201.993 1182.93 202.717 1182.43 203.328C1181.93 203.938 1181.31 204.41 1180.57 204.744C1179.84 205.077 1178.99 205.244 1178.01 205.244C1177.08 205.244 1176.26 205.081 1175.53 204.756C1174.81 204.422 1174.19 203.95 1173.69 203.34C1173.19 202.729 1172.81 202.005 1172.55 201.167C1172.29 200.321 1172.16 199.381 1172.16 198.347C1172.16 196.923 1172.4 195.698 1172.87 194.673C1173.35 193.639 1174.03 192.85 1174.92 192.305C1175.82 191.751 1176.89 191.475 1178.13 191.475C1179.42 191.475 1180.49 191.768 1181.34 192.354C1182.21 192.931 1182.85 193.737 1183.28 194.771C1183.72 195.804 1183.93 196.996 1183.93 198.347ZM1173.43 198.347C1173.43 199.511 1173.6 200.528 1173.93 201.399C1174.27 202.27 1174.77 202.949 1175.45 203.438C1176.13 203.926 1176.99 204.17 1178.03 204.17C1179.1 204.17 1179.98 203.926 1180.66 203.438C1181.34 202.949 1181.85 202.266 1182.17 201.387C1182.5 200.508 1182.66 199.495 1182.66 198.347C1182.66 197.232 1182.51 196.239 1182.2 195.369C1181.89 194.498 1181.4 193.814 1180.73 193.318C1180.07 192.813 1179.19 192.561 1178.12 192.561C1176.58 192.561 1175.41 193.074 1174.62 194.099C1173.83 195.125 1173.43 196.541 1173.43 198.347ZM1199.41 205.244C1198.09 205.244 1196.98 204.972 1196.06 204.426C1195.16 203.873 1194.48 203.088 1194.01 202.07C1193.56 201.045 1193.33 199.832 1193.33 198.433C1193.33 196.976 1193.59 195.731 1194.12 194.697C1194.65 193.656 1195.4 192.858 1196.36 192.305C1197.32 191.751 1198.44 191.475 1199.74 191.475C1200.37 191.475 1200.96 191.532 1201.51 191.646C1202.05 191.759 1202.55 191.918 1202.99 192.122L1202.66 193.208C1202.2 193.005 1201.72 192.85 1201.2 192.744C1200.69 192.638 1200.2 192.585 1199.73 192.585C1198.64 192.585 1197.71 192.826 1196.94 193.306C1196.19 193.778 1195.6 194.453 1195.2 195.332C1194.8 196.203 1194.6 197.232 1194.6 198.42C1194.6 199.535 1194.77 200.524 1195.11 201.387C1195.45 202.241 1195.98 202.917 1196.69 203.413C1197.4 203.901 1198.3 204.146 1199.41 204.146C1200.05 204.146 1200.66 204.08 1201.24 203.95C1201.83 203.82 1202.36 203.653 1202.84 203.45V204.573C1202.41 204.768 1201.91 204.927 1201.34 205.049C1200.78 205.179 1200.13 205.244 1199.41 205.244ZM1207.21 186.006V192.207C1207.21 192.565 1207.2 192.899 1207.19 193.208C1207.18 193.517 1207.16 193.831 1207.14 194.148H1207.22C1207.44 193.643 1207.75 193.192 1208.16 192.793C1208.58 192.394 1209.09 192.077 1209.69 191.841C1210.3 191.605 1211 191.487 1211.8 191.487C1212.81 191.487 1213.65 191.662 1214.34 192.012C1215.03 192.354 1215.56 192.878 1215.91 193.586C1216.27 194.294 1216.45 195.206 1216.45 196.321V205H1215.23V196.394C1215.23 195.076 1214.93 194.107 1214.33 193.489C1213.72 192.87 1212.85 192.561 1211.7 192.561C1210.73 192.561 1209.9 192.752 1209.24 193.135C1208.57 193.509 1208.06 194.079 1207.72 194.844C1207.38 195.601 1207.21 196.549 1207.21 197.688V205H1205.98V186.006H1207.21ZM1225.78 191.475C1226.91 191.475 1227.85 191.739 1228.6 192.268C1229.35 192.797 1229.91 193.521 1230.28 194.441C1230.66 195.361 1230.84 196.414 1230.84 197.603V198.494H1221.26C1221.26 200.317 1221.68 201.716 1222.52 202.693C1223.36 203.669 1224.57 204.158 1226.14 204.158C1226.96 204.158 1227.68 204.093 1228.28 203.962C1228.89 203.824 1229.56 203.592 1230.31 203.267V204.402C1229.65 204.695 1229 204.906 1228.35 205.037C1227.7 205.175 1226.95 205.244 1226.11 205.244C1224.76 205.244 1223.64 204.967 1222.72 204.414C1221.82 203.853 1221.14 203.063 1220.67 202.046C1220.22 201.029 1219.99 199.84 1219.99 198.481C1219.99 197.155 1220.21 195.963 1220.65 194.905C1221.1 193.847 1221.75 193.013 1222.6 192.402C1223.47 191.784 1224.52 191.475 1225.78 191.475ZM1225.76 192.537C1224.49 192.537 1223.47 192.96 1222.68 193.806C1221.89 194.644 1221.43 195.857 1221.3 197.444H1229.56C1229.56 196.475 1229.42 195.621 1229.15 194.88C1228.87 194.14 1228.45 193.566 1227.89 193.159C1227.33 192.744 1226.63 192.537 1225.76 192.537ZM1239.81 205.244C1238.5 205.244 1237.38 204.972 1236.47 204.426C1235.57 203.873 1234.88 203.088 1234.42 202.07C1233.96 201.045 1233.74 199.832 1233.74 198.433C1233.74 196.976 1234 195.731 1234.53 194.697C1235.06 193.656 1235.8 192.858 1236.76 192.305C1237.72 191.751 1238.85 191.475 1240.14 191.475C1240.78 191.475 1241.37 191.532 1241.91 191.646C1242.46 191.759 1242.95 191.918 1243.39 192.122L1243.06 193.208C1242.61 193.005 1242.12 192.85 1241.61 192.744C1241.1 192.638 1240.6 192.585 1240.13 192.585C1239.04 192.585 1238.11 192.826 1237.35 193.306C1236.59 193.778 1236.01 194.453 1235.6 195.332C1235.2 196.203 1235 197.232 1235 198.42C1235 199.535 1235.18 200.524 1235.52 201.387C1235.86 202.241 1236.38 202.917 1237.09 203.413C1237.8 203.901 1238.71 204.146 1239.81 204.146C1240.46 204.146 1241.07 204.08 1241.65 203.95C1242.23 203.82 1242.76 203.653 1243.24 203.45V204.573C1242.81 204.768 1242.31 204.927 1241.74 205.049C1241.18 205.179 1240.54 205.244 1239.81 205.244ZM1247.61 186.006V195.588C1247.61 196.182 1247.61 196.789 1247.59 197.407C1247.58 198.018 1247.57 198.628 1247.55 199.238H1247.58C1247.81 198.962 1248.06 198.673 1248.31 198.372C1248.57 198.062 1248.83 197.765 1249.08 197.48L1254.33 191.731H1255.82L1250.58 197.419L1256.28 205H1254.8L1249.74 198.237L1247.61 200.471V205H1246.38V186.006H1247.61ZM1278.68 191.475C1279.96 191.475 1280.97 191.845 1281.71 192.585C1282.45 193.326 1282.82 194.494 1282.82 196.089V205H1281.61V196.138C1281.61 194.909 1281.33 194.006 1280.77 193.428C1280.21 192.85 1279.47 192.561 1278.55 192.561C1277.29 192.561 1276.3 192.931 1275.58 193.672C1274.87 194.404 1274.52 195.56 1274.52 197.139V205H1273.3V196.138C1273.3 195.316 1273.17 194.644 1272.91 194.124C1272.66 193.595 1272.3 193.204 1271.85 192.952C1271.39 192.691 1270.85 192.561 1270.23 192.561C1269.41 192.561 1268.7 192.732 1268.1 193.074C1267.5 193.407 1267.03 193.928 1266.71 194.636C1266.38 195.336 1266.22 196.227 1266.22 197.31V205H1264.99V191.731H1265.99L1266.17 193.904H1266.24C1266.46 193.472 1266.76 193.074 1267.12 192.708C1267.49 192.341 1267.94 192.044 1268.48 191.816C1269.02 191.589 1269.66 191.475 1270.39 191.475C1271.35 191.475 1272.15 191.69 1272.81 192.122C1273.48 192.545 1273.94 193.175 1274.2 194.014H1274.29C1274.65 193.216 1275.2 192.594 1275.95 192.146C1276.7 191.698 1277.62 191.475 1278.68 191.475ZM1284.9 191.731H1286.2L1289.42 200.154C1289.62 200.65 1289.79 201.11 1289.94 201.533C1290.09 201.948 1290.23 202.331 1290.34 202.681C1290.45 203.022 1290.55 203.336 1290.62 203.621H1290.69C1290.82 203.246 1290.98 202.766 1291.18 202.18C1291.39 201.586 1291.62 200.927 1291.88 200.203L1295.06 191.731H1296.38L1290.33 207.49C1290.03 208.255 1289.71 208.902 1289.36 209.431C1289.01 209.968 1288.6 210.371 1288.13 210.64C1287.66 210.916 1287.09 211.055 1286.42 211.055C1286.12 211.055 1285.85 211.03 1285.6 210.981C1285.36 210.941 1285.12 210.884 1284.9 210.811V209.749C1285.11 209.814 1285.32 209.867 1285.54 209.907C1285.77 209.956 1286.02 209.98 1286.29 209.98C1286.75 209.98 1287.15 209.883 1287.48 209.688C1287.82 209.5 1288.13 209.207 1288.4 208.809C1288.67 208.41 1288.92 207.901 1289.16 207.283L1290.06 204.927L1284.9 191.731ZM1324.56 187.153L1319.69 205H1318.46L1314.64 191.523C1314.55 191.239 1314.47 190.97 1314.4 190.718C1314.33 190.457 1314.27 190.213 1314.2 189.985C1314.15 189.749 1314.09 189.53 1314.03 189.326C1313.98 189.115 1313.94 188.923 1313.91 188.752C1313.88 188.923 1313.84 189.106 1313.8 189.302C1313.77 189.489 1313.73 189.684 1313.68 189.888C1313.63 190.091 1313.58 190.303 1313.52 190.522C1313.46 190.742 1313.4 190.97 1313.34 191.206L1309.53 205H1308.3L1303.49 187.153H1304.78L1308.14 199.739C1308.23 200.072 1308.31 200.39 1308.38 200.691C1308.46 200.992 1308.54 201.285 1308.6 201.57C1308.67 201.847 1308.73 202.119 1308.78 202.388C1308.85 202.648 1308.91 202.913 1308.96 203.181C1309.01 202.913 1309.07 202.64 1309.13 202.363C1309.18 202.087 1309.24 201.806 1309.31 201.521C1309.38 201.236 1309.46 200.943 1309.53 200.642C1309.61 200.333 1309.7 200.011 1309.8 199.678L1313.3 187.153H1314.56L1318.2 199.751C1318.29 200.101 1318.38 200.431 1318.46 200.74C1318.55 201.049 1318.62 201.346 1318.68 201.631C1318.75 201.908 1318.81 202.18 1318.87 202.449C1318.92 202.709 1318.98 202.974 1319.04 203.242C1319.1 202.876 1319.17 202.518 1319.23 202.168C1319.31 201.81 1319.39 201.436 1319.49 201.045C1319.59 200.654 1319.7 200.227 1319.82 199.763L1323.25 187.153H1324.56ZM1332.39 191.475C1333.52 191.475 1334.46 191.739 1335.21 192.268C1335.97 192.797 1336.53 193.521 1336.9 194.441C1337.27 195.361 1337.46 196.414 1337.46 197.603V198.494H1327.88C1327.88 200.317 1328.3 201.716 1329.13 202.693C1329.98 203.669 1331.19 204.158 1332.76 204.158C1333.58 204.158 1334.29 204.093 1334.9 203.962C1335.51 203.824 1336.18 203.592 1336.92 203.267V204.402C1336.27 204.695 1335.62 204.906 1334.97 205.037C1334.32 205.175 1333.57 205.244 1332.72 205.244C1331.38 205.244 1330.25 204.967 1329.34 204.414C1328.44 203.853 1327.75 203.063 1327.29 202.046C1326.83 201.029 1326.61 199.84 1326.61 198.481C1326.61 197.155 1326.83 195.963 1327.27 194.905C1327.71 193.847 1328.36 193.013 1329.22 192.402C1330.08 191.784 1331.14 191.475 1332.39 191.475ZM1332.38 192.537C1331.11 192.537 1330.08 192.96 1329.29 193.806C1328.51 194.644 1328.05 195.857 1327.91 197.444H1336.18C1336.18 196.475 1336.04 195.621 1335.76 194.88C1335.49 194.14 1335.07 193.566 1334.5 193.159C1333.95 192.744 1333.24 192.537 1332.38 192.537ZM1342.33 186.006V191.401C1342.33 191.865 1342.32 192.374 1342.3 192.927C1342.29 193.481 1342.27 193.94 1342.26 194.307H1342.33C1342.65 193.485 1343.2 192.805 1343.99 192.268C1344.78 191.731 1345.76 191.462 1346.94 191.462C1348.67 191.462 1350 192.044 1350.94 193.208C1351.88 194.372 1352.35 196.077 1352.35 198.323C1352.35 199.698 1352.14 200.907 1351.72 201.948C1351.29 202.982 1350.66 203.792 1349.82 204.377C1348.99 204.955 1347.95 205.244 1346.7 205.244C1345.57 205.244 1344.64 205.008 1343.93 204.536C1343.21 204.056 1342.69 203.458 1342.37 202.742H1342.27L1342.04 205H1341.1V186.006H1342.33ZM1346.81 192.537C1345.76 192.537 1344.9 192.764 1344.25 193.22C1343.59 193.668 1343.1 194.323 1342.79 195.186C1342.48 196.048 1342.33 197.102 1342.33 198.347V198.542C1342.33 200.374 1342.66 201.769 1343.33 202.729C1344 203.69 1345.08 204.17 1346.58 204.17C1348.06 204.17 1349.18 203.665 1349.93 202.656C1350.7 201.639 1351.08 200.194 1351.08 198.323C1351.08 196.41 1350.73 194.97 1350.02 194.001C1349.31 193.025 1348.24 192.537 1346.81 192.537ZM1364.3 201.521C1364.3 202.31 1364.1 202.986 1363.7 203.547C1363.31 204.101 1362.74 204.524 1361.98 204.817C1361.23 205.102 1360.29 205.244 1359.19 205.244C1358.27 205.244 1357.45 205.163 1356.72 205C1356 204.837 1355.39 204.638 1354.9 204.402V203.181C1355.51 203.482 1356.19 203.726 1356.93 203.914C1357.67 204.101 1358.43 204.194 1359.21 204.194C1360.58 204.194 1361.56 203.962 1362.17 203.499C1362.77 203.035 1363.07 202.4 1363.07 201.594C1363.07 201.065 1362.92 200.63 1362.62 200.288C1362.32 199.938 1361.9 199.637 1361.35 199.385C1360.79 199.132 1360.13 198.876 1359.35 198.616C1358.53 198.339 1357.81 198.066 1357.17 197.798C1356.55 197.521 1356.05 197.159 1355.7 196.711C1355.34 196.256 1355.16 195.637 1355.16 194.856C1355.16 193.79 1355.59 192.96 1356.44 192.366C1357.29 191.772 1358.44 191.475 1359.88 191.475C1360.68 191.475 1361.42 191.552 1362.1 191.707C1362.8 191.853 1363.42 192.044 1363.98 192.28L1363.54 193.33C1363.04 193.094 1362.46 192.903 1361.8 192.756C1361.14 192.61 1360.48 192.537 1359.82 192.537C1358.74 192.537 1357.89 192.728 1357.28 193.11C1356.67 193.493 1356.37 194.054 1356.37 194.795C1356.37 195.365 1356.51 195.812 1356.81 196.138C1357.1 196.455 1357.52 196.724 1358.06 196.943C1358.61 197.155 1359.26 197.391 1360 197.651C1360.78 197.92 1361.49 198.201 1362.14 198.494C1362.8 198.787 1363.33 199.165 1363.72 199.629C1364.11 200.093 1364.3 200.723 1364.3 201.521ZM1368.88 191.731V205H1367.65V191.731H1368.88ZM1368.28 186.824C1368.59 186.824 1368.82 186.917 1368.96 187.104C1369.11 187.284 1369.18 187.528 1369.18 187.837C1369.18 188.146 1369.11 188.39 1368.96 188.569C1368.82 188.748 1368.59 188.838 1368.28 188.838C1367.99 188.838 1367.77 188.748 1367.62 188.569C1367.48 188.39 1367.4 188.146 1367.4 187.837C1367.4 187.528 1367.48 187.284 1367.62 187.104C1367.77 186.917 1367.99 186.824 1368.28 186.824ZM1376.9 204.182C1377.28 204.182 1377.64 204.154 1377.96 204.097C1378.3 204.04 1378.59 203.966 1378.84 203.877V204.902C1378.58 204.992 1378.27 205.069 1377.92 205.134C1377.57 205.208 1377.19 205.244 1376.77 205.244C1376.02 205.244 1375.39 205.106 1374.9 204.829C1374.4 204.544 1374.03 204.117 1373.77 203.547C1373.52 202.97 1373.4 202.237 1373.4 201.35V192.756H1371.42V192.024L1373.38 191.646L1373.81 188.521H1374.63V191.731H1378.77V192.756H1374.63V201.277C1374.63 202.229 1374.8 202.953 1375.15 203.45C1375.51 203.938 1376.09 204.182 1376.9 204.182ZM1386.71 191.475C1387.85 191.475 1388.78 191.739 1389.53 192.268C1390.29 192.797 1390.85 193.521 1391.22 194.441C1391.59 195.361 1391.78 196.414 1391.78 197.603V198.494H1382.2C1382.2 200.317 1382.62 201.716 1383.45 202.693C1384.3 203.669 1385.51 204.158 1387.08 204.158C1387.9 204.158 1388.61 204.093 1389.22 203.962C1389.83 203.824 1390.5 203.592 1391.24 203.267V204.402C1390.59 204.695 1389.94 204.906 1389.29 205.037C1388.64 205.175 1387.89 205.244 1387.04 205.244C1385.7 205.244 1384.57 204.967 1383.66 204.414C1382.76 203.853 1382.08 203.063 1381.61 202.046C1381.16 201.029 1380.93 199.84 1380.93 198.481C1380.93 197.155 1381.15 195.963 1381.59 194.905C1382.03 193.847 1382.69 193.013 1383.54 192.402C1384.4 191.784 1385.46 191.475 1386.71 191.475ZM1386.7 192.537C1385.43 192.537 1384.4 192.96 1383.61 193.806C1382.83 194.644 1382.37 195.857 1382.23 197.444H1390.5C1390.5 196.475 1390.36 195.621 1390.08 194.88C1389.81 194.14 1389.39 193.566 1388.83 193.159C1388.27 192.744 1387.56 192.537 1386.7 192.537Z" fill="#E4E4E4"/>
</g>
<defs>
<filter id="filter0_f_1_2" x="1140.67" y="137.713" width="871.409" height="354.575" filterUnits="userSpaceOnUse" color-interpolation-filters="sRGB">
<feFlood flood-opacity="0" result="BackgroundImageFix"/>
<feBlend mode="normal" in="SourceGraphic" in2="BackgroundImageFix" result="shape"/>
<feGaussianBlur stdDeviation="62.5" result="effect1_foregroundBlur_1_2"/>
</filter>
<filter id="filter1_f_1_2" x="638.994" y="74.8659" width="465.435" height="523.328" filterUnits="userSpaceOnUse" color-interpolation-filters="sRGB">
<feFlood flood-opacity="0" result="BackgroundImageFix"/>
<feBlend mode="normal" in="SourceGraphic" in2="BackgroundImageFix" result="shape"/>
<feGaussianBlur stdDeviation="62.5" result="effect1_foregroundBlur_1_2"/>
</filter>
<filter id="filter2_f_1_2" x="-286.51" y="115.161" width="968.37" height="521.007" filterUnits="userSpaceOnUse" color-interpolation-filters="sRGB">
<feFlood flood-opacity="0" result="BackgroundImageFix"/>
<feBlend mode="normal" in="SourceGraphic" in2="BackgroundImageFix" result="shape"/>
<feGaussianBlur stdDeviation="62.5" result="effect1_foregroundBlur_1_2"/>
</filter>
<filter id="filter3_f_1_2" x="335.589" y="-363.958" width="941.242" height="584.301" filterUnits="userSpaceOnUse" color-interpolation-filters="sRGB">
<feFlood flood-opacity="0" result="BackgroundImageFix"/>
<feBlend mode="normal" in="SourceGraphic" in2="BackgroundImageFix" result="shape"/>
<feGaussianBlur stdDeviation="62.5" result="effect1_foregroundBlur_1_2"/>
</filter>
<filter id="filter4_f_1_2" x="-134.587" y="-266.193" width="608.376" height="596.998" filterUnits="userSpaceOnUse" color-interpolation-filters="sRGB">
<feFlood flood-opacity="0" result="BackgroundImageFix"/>
<feBlend mode="normal" in="SourceGraphic" in2="BackgroundImageFix" result="shape"/>
<feGaussianBlur stdDeviation="62.5" result="effect1_foregroundBlur_1_2"/>
</filter>
<clipPath id="clip0_1_2">
<rect width="1528" height="382" fill="white"/>
</clipPath>
</defs>
</svg>
