<?xml version="1.0" encoding="utf-8"?>
<!-- Generator: Adobe Illustrator 25.1.0, SVG Export Plug-In . SVG Version: 6.00 Build 0)  -->
<svg version="1.1" id="Layer_1" xmlns="http://www.w3.org/2000/svg" xmlns:xlink="http://www.w3.org/1999/xlink" x="0px" y="0px"
	 viewBox="0 0 128 128" style="enable-background:new 0 0 128 128;" xml:space="preserve">
<style type="text/css">
	.st0{fill:url(#SVGID_1_);}

	.st0 {
		filter: drop-shadow(0 0 12px rgb(245, 85, 22, 0.3));
	}
</style>
<linearGradient id="SVGID_1_" gradientUnits="userSpaceOnUse" x1="31.4062" y1="65.8934" x2="96.5031" y2="65.8934" gradientTransform="matrix(1 0 0 -1 0 130)">
	<stop  offset="0" style="stop-color:#D37E4C"/>
	<stop  offset="1" style="stop-color:#EA5057"/>
</linearGradient>
<path class="st0" d="M64,32.3c-18,0-32.5,14.6-32.5,32.5c0,14,8.9,26.5,22.3,30.9c1.6,0.3,2.2-0.7,2.2-1.5c0-0.8-0.1-3.4-0.1-6
	c-8.2,1.5-10.3-2-11-3.8c-0.7-1.8-1.9-3.4-3.4-4.6c-1.1-0.6-2.8-2.1-0.1-2.2c2.1,0.2,4,1.5,5,3.4c1.9,3.4,6.1,4.5,9.5,2.7l0,0
	c0.2-1.7,0.9-3.2,2.1-4.3c-7.2-0.8-14.8-3.6-14.8-16.1c-0.1-3.3,1.1-6.4,3.4-8.7c-1-2.8-0.9-5.9,0.3-8.6c0,0,2.7-0.9,8.9,3.4
	c5.3-1.4,11-1.4,16.3,0c6.2-4.2,8.9-3.4,8.9-3.4c1.2,2.7,1.3,5.8,0.3,8.6c2.2,2.4,3.4,5.5,3.4,8.7c0,12.5-7.6,15.2-14.8,16.1
	c1.5,1.6,2.4,3.8,2.2,6c0,4.3-0.1,7.9-0.1,8.9c0,0.9,0.6,1.9,2.2,1.5c17-5.7,26.2-24.2,20.5-41.2C90.4,41.2,77.9,32.3,64,32.3z"/>
</svg>
