<?xml version="1.0" encoding="utf-8"?>
<!-- Generator: Adobe Illustrator 25.1.0, SVG Export Plug-In . SVG Version: 6.00 Build 0)  -->
<svg version="1.1" id="Layer_1" xmlns="http://www.w3.org/2000/svg" xmlns:xlink="http://www.w3.org/1999/xlink" x="0px" y="0px"
	 viewBox="0 0 128 128" style="enable-background:new 0 0 128 128;" xml:space="preserve">
<style type="text/css">
	.st0{fill:url(#SVGID_1_);}

	.st0 {
		filter: drop-shadow(0 0 12px rgb(245, 85, 22, 0.3));
		transform-origin: center;
		
		animation-name: scale;
		animation-duration: 4s;
		 animation-timing-function: ease-in-out;
		animation-iteration-count: infinite;
	}

	@keyframes scale {
		15% { transform: scale(1) }
		20% { transform: scale(1.1) }
		25% { transform: scale(1) }
		100% { transform: scale(1) }
	}
</style>
<linearGradient id="SVGID_1_" gradientUnits="userSpaceOnUse" x1="-221.1102" y1="1443.5344" x2="-156.1102" y2="1443.5344" gradientTransform="matrix(0.1908 0.9816 0.9816 -0.1908 -1318.1104 518.9957)">
	<stop  offset="0" style="stop-color:#D37E4C"/>
	<stop  offset="1" style="stop-color:#EA5057"/>
</linearGradient>
<path class="st0" d="M86.8,31.5H41.2c-5.4,0-9.8,4.4-9.8,9.8v45.5c0,5.4,4.4,9.8,9.8,9.8h45.5c5.4,0,9.8-4.4,9.8-9.8V41.2
	C96.5,35.9,92.1,31.5,86.8,31.5z M64.4,78.1c0,6.3-3.7,9.1-9.1,9.1c-5,0-7.7-2.5-9.1-5.6l5-2.7c1,1.7,1.8,3.2,3.9,3.2
	c2,0,3.3-0.8,3.3-3.8v-21h6.1V78.1z M78.7,87.6c-5.7,0-9.4-2.7-11.2-6.2l5.1-2.9c1.3,2.2,3,3.7,6,3.7c2.5,0,4.2-1.3,4.2-3
	c0-2-1.7-2.8-4.4-4.1l-1.5-0.6c-4.4-1.9-7.4-4.2-7.4-9.1c0-4.6,3.4-8.2,8.9-8.2c3.9,0,6.7,1.4,8.6,5l-4.7,3c-1-1.9-2.2-2.7-3.9-2.7
	s-2.9,1.1-2.9,2.7c0,1.8,1.1,2.5,3.8,3.7l1.5,0.6c5.2,2.3,8.2,4.4,8.2,9.6C88.9,84.6,84.6,87.6,78.7,87.6z"/>
</svg>
