<?xml version="1.0" encoding="utf-8"?>
<!-- Generator: Adobe Illustrator 25.1.0, SVG Export Plug-In . SVG Version: 6.00 Build 0)  -->
<svg version="1.1" id="Layer_1" xmlns="http://www.w3.org/2000/svg" xmlns:xlink="http://www.w3.org/1999/xlink" x="0px" y="0px"
	 viewBox="0 0 128 128" style="enable-background:new 0 0 128 128;" xml:space="preserve">
<style type="text/css">
	.st0{fill:url(#SVGID_1_);}
	.st1{fill:#FFFFFF;}

	.st0, .st2 {
		filter: drop-shadow(0 0 12px rgb(245, 85, 22, 0.3));
	}
</style>
<g>
	<linearGradient id="SVGID_1_" gradientUnits="userSpaceOnUse" x1="30.4507" y1="31.6798" x2="101.8637" y2="92.9189">
		<stop  offset="0" style="stop-color:#D37E4C"/>
		<stop  offset="1" style="stop-color:#EA5057"/>
	</linearGradient>
	<path class="st0" d="M96.8,63.4c0-4.3-3.5-7.7-7.7-7.7c-0.3,0-0.5,0-0.8,0l10.6-31.2h-45l10.6,31.2c-0.2,0-0.3,0-0.5,0
		c-4.3,0-7.7,3.5-7.7,7.7c0,3.4,2.3,6.4,5.4,7.3c-1.6,2.8-3.7,5.4-6.1,7.6c-3.2,3-6.8,5.3-10.8,6.7c-4.7-2.4-6.9-7.8-4.9-12.5
		c0.2-0.5,0.5-1.1,0.7-1.6c3.4-0.8,6-3.9,6-7.5c0-4.3-3.5-7.7-7.7-7.7c-4.3,0-7.7,3.5-7.7,7.7c0,2.6,1.3,4.9,3.3,6.3
		c-1.9,4.3-4.7,8.9-5.6,14.2c-1,6.3,0,13,5.5,16.8c12.7,8.8,26.5-5.5,41.1-9.1c5.3-1.3,11.1-1.1,15.7-3.8c3.5-2,5.8-5.4,6.4-9.1
		c0.6-3.7-0.3-7.4-2.5-10.4C96.1,67,96.8,65.2,96.8,63.4L96.8,63.4z M71.7,63.4C71.7,63.4,71.7,63.4,71.7,63.4
		c0-2.8-1.5-5.3-3.7-6.6l8.4-17L84.8,57c-2.1,1.4-3.4,3.7-3.4,6.4c0,0.1,0,0.1,0,0.2L71.7,63.4L71.7,63.4z"/>
	<path class="st1" d="M98.7,63.4c0-4.7-3.4-8.6-7.8-9.4l10.6-31.4H51.2L61.9,54c-4.3,1-7.5,4.8-7.5,9.4c0,3.4,1.8,6.5,4.5,8.1
		c-1.3,1.9-2.9,3.8-4.6,5.5c-2.8,2.7-6,4.7-9.3,6c-3.4-2.1-4.9-6.2-3.4-9.7l0.1-0.3c0.1-0.2,0.1-0.3,0.2-0.5
		c3.7-1.3,6.4-4.9,6.4-9.1c0-5.3-4.3-9.6-9.6-9.6s-9.6,4.3-9.6,9.6c0,2.7,1.1,5.1,2.9,6.8c-0.3,0.7-0.7,1.4-1,2.1
		c-1.6,3.3-3.4,7.1-4.1,11.3c-1.4,8.3,0.8,14.9,6.2,18.7c3.3,2.3,6.6,3.2,10,3.2c6.3,0,12.7-3.2,18.9-6.3c4.5-2.2,9.1-4.5,13.7-5.7
		c1.7-0.4,3.5-0.7,5.3-0.9c3.7-0.5,7.5-1.1,10.9-3c3.9-2.3,6.6-6.1,7.4-10.4c0.7-3.7-0.1-7.5-2-10.7C98.2,66.9,98.7,65.2,98.7,63.4
		L98.7,63.4z M94.9,63.4c0,3.2-2.6,5.8-5.8,5.8c-3.2,0-5.8-2.6-5.8-5.8s2.6-5.8,5.8-5.8C92.3,57.5,94.9,60.2,94.9,63.4L94.9,63.4z
		 M96.2,26.4L86.9,54c-0.4,0.1-0.8,0.2-1.2,0.4l-9.3-18.9l-9.3,18.8c-0.4-0.1-0.8-0.3-1.2-0.3l-9.4-27.6H96.2L96.2,26.4z M64,57.5
		c3.2,0,5.8,2.6,5.8,5.8s-2.6,5.8-5.8,5.8c-3.2,0-5.8-2.6-5.8-5.8S60.8,57.5,64,57.5L64,57.5z M38.8,57.6c3.2,0,5.8,2.6,5.8,5.8
		s-2.6,5.8-5.8,5.8c-3.2,0-5.8-2.6-5.8-5.8S35.6,57.6,38.8,57.6L38.8,57.6z M95.6,78.4c-0.6,3.3-2.6,6.1-5.5,7.8
		c-2.8,1.6-6,2.1-9.5,2.6c-1.9,0.3-3.8,0.5-5.7,1c-5,1.2-9.8,3.6-14.5,6c-9.4,4.6-17.4,8.7-25.1,3.4c-5.6-3.9-5.3-11-4.7-15
		c0.6-3.6,2.2-7,3.8-10.2c0.3-0.6,0.5-1.1,0.8-1.7c0.8,0.3,1.6,0.5,2.5,0.6c-1.6,5.3,0.9,11.1,6.2,13.8l0.7,0.4l0.8-0.3
		c4.2-1.5,8-3.9,11.5-7.1c2.2-2.1,4.1-4.4,5.7-6.9C63,72.9,63.5,73,64,73c5.3,0,9.6-4.3,9.6-9.6c0-2.8-1.2-5.4-3.2-7.2l6-12.2
		l6.1,12.4c-1.8,1.7-3,4.2-3,6.9c0,5.3,4.3,9.6,9.6,9.6c2,0,3.9-0.6,5.5-1.7C95.6,73.4,96,75.9,95.6,78.4L95.6,78.4z"/>
</g>
</svg>
