<?xml version="1.0" encoding="utf-8"?>
<!-- Generator: Adobe Illustrator 25.1.0, SVG Export Plug-In . SVG Version: 6.00 Build 0)  -->
<svg version="1.1" id="Layer_1" xmlns="http://www.w3.org/2000/svg" xmlns:xlink="http://www.w3.org/1999/xlink" x="0px" y="0px"
	 viewBox="0 0 128 128" style="enable-background:new 0 0 128 128;" xml:space="preserve">
<style type="text/css">
	.st0{fill:url(#SVGID_1_);}

	.st0 {
		filter: drop-shadow(0 0 12px rgb(245, 85, 22, 0.3));
	}
</style>
<linearGradient id="SVGID_1_" gradientUnits="userSpaceOnUse" x1="32.6237" y1="1115.7065" x2="97.5555" y2="1115.7065" gradientTransform="matrix(0.5446 0.8387 0.8387 -0.5446 -914.9437 605.1168)">
	<stop  offset="0" style="stop-color:#D37E4C"/>
	<stop  offset="1" style="stop-color:#EA5057"/>
</linearGradient>
<path class="st0" d="M93.7,43.7L66.8,28.1c-1.7-1-3.8-1-5.6,0L34.3,43.7c-1.7,1-2.8,2.8-2.8,4.8v31c0,2,1,3.8,2.8,4.8l26.9,15.5
	c1.7,1,3.8,1,5.6,0l26.9-15.5c1.7-1,2.8-2.8,2.8-4.8v-31C96.4,46.5,95.4,44.6,93.7,43.7z M89.6,76.2c0,1.6-0.9,3.1-2.2,3.8
	L66.2,92.3c-0.7,0.4-1.5,0.6-2.2,0.6l0,0c-0.8,0-1.5-0.2-2.2-0.6l-7-4.2c-1-0.6-0.5-0.8-0.2-0.9c1.4-0.5,1.7-0.6,3.2-1.5
	c0.2-0.1,0.3-0.1,0.5,0.1l5.4,3.2c0.2,0.1,0.5,0.1,0.6,0l21.2-12.2c0.2-0.1,0.3-0.3,0.3-0.6V51.8c0-0.2-0.1-0.5-0.3-0.6L64.3,39
	c-0.2-0.1-0.5-0.1-0.6,0L42.5,51.2c-0.2,0.1-0.3,0.3-0.3,0.6v24.4c0,0.2,0.1,0.5,0.3,0.6l5.8,3.4c3.1,1.6,5.1-0.3,5.1-2.2V53.9
	c0-0.3,0.3-0.6,0.6-0.6h2.7c0.3,0,0.6,0.3,0.6,0.6V78c0,4.2-2.3,6.6-6.3,6.6c-1.2,0-2.2,0-4.9-1.3L40.6,80c-1.4-0.8-2.2-2.3-2.2-3.8
	V51.8c0-1.6,0.9-3.1,2.2-3.8l21.2-12.2c1.3-0.8,3.1-0.8,4.4,0L87.4,48c1.4,0.8,2.2,2.3,2.2,3.8C89.6,51.8,89.6,76.2,89.6,76.2z
	 M69.4,65.9c-5.8-0.6-9.4-1.9-9.4-6.5c0-4.2,3.6-6.8,9.7-6.8c6.7,0,10.1,2.3,10.5,7.4c0,0.3-0.2,0.6-0.6,0.6h-0.1h-2.7
	c-0.3,0-0.5-0.2-0.6-0.5c-0.6-2.9-2.3-3.8-6.6-3.8c-4.9,0-5.4,1.7-5.4,3c0,1.5,0.6,2,7.2,2.8c6.5,0.9,9.6,2.1,9.6,6.6
	c0,4.6-3.8,7.3-10.5,7.3h0.1c-9.3-0.1-11.2-4.3-11.2-7.8c0-0.3,0.3-0.6,0.6-0.6h2.7c0.3,0,0.6,0.2,0.6,0.5c0.4,2.8,1.6,4.2,7.2,4.2
	c4.5,0,6.3-1,6.3-3.4C76.9,67.6,76.3,66.6,69.4,65.9z"/>
</svg>
