<?xml version="1.0" encoding="utf-8"?>
<!-- Generator: Adobe Illustrator 25.1.0, SVG Export Plug-In . SVG Version: 6.00 Build 0)  -->
<svg version="1.1" id="Layer_1" xmlns="http://www.w3.org/2000/svg" xmlns:xlink="http://www.w3.org/1999/xlink" x="0px" y="0px"
	 viewBox="0 0 128 128" style="enable-background:new 0 0 128 128;" xml:space="preserve">
<style type="text/css">
	.st0{fill:url(#SVGID_1_);}
	.st1{fill:url(#SVGID_2_);}
	.st2{fill:url(#SVGID_3_);}
	.st3{fill:url(#SVGID_4_);}

	.st0, .st1, .st2, .st3 {
		filter: drop-shadow(0 0 12px rgb(245, 85, 22, 0.3));
	}
</style>
<g id="Layer_1_1_">
	<g>
		
			<linearGradient id="SVGID_1_" gradientUnits="userSpaceOnUse" x1="58.174" y1="1013.918" x2="69.78" y2="1013.918" gradientTransform="matrix(1 0 0 1 0 -950)">
			<stop  offset="0" style="stop-color:#D37E4C"/>
			<stop  offset="1" style="stop-color:#EA5057"/>
		</linearGradient>
		<circle class="st0" cx="64" cy="63.9" r="5.8"/>
	</g>
</g>
<g id="Layer_2_1_">
	<g>
		
			<linearGradient id="SVGID_2_" gradientUnits="userSpaceOnUse" x1="44.0552" y1="1013.9828" x2="84.0051" y2="1013.9828" gradientTransform="matrix(1 0 0 1 0 -950)">
			<stop  offset="0" style="stop-color:#D37E4C"/>
			<stop  offset="1" style="stop-color:#EA5057"/>
		</linearGradient>
		<path class="st1" d="M77.2,92.8c-1.1,0-2.3-0.2-3.5-0.7c-2.4-0.8-5.1-2.5-7.8-4.8c-2.3-2-4.6-4.4-6.9-7.3c-2.3-2.9-4.5-6-6.5-9.5
			l0,0c-3.9-6.7-6.7-13.7-7.8-19.7c-0.7-3.5-0.8-6.7-0.4-9.3c0.5-2.8,1.6-4.8,3.3-5.8c1.8-1,4.2-1,7,0.1c2.6,1,5.5,2.8,8.3,5.3
			c2.1,1.9,4.3,4.3,6.5,7c2.1,2.7,4.1,5.8,6,9c2,3.4,3.6,6.7,5,9.9c1.4,3.3,2.4,6.5,3,9.3c0.7,3.6,0.8,6.9,0.3,9.6
			c-0.5,2.9-1.7,5-3.5,5.9C79.4,92.6,78.3,92.8,77.2,92.8z M54.9,69.2c3.8,6.5,8.4,12.4,12.8,16.1c2.4,2.1,4.8,3.5,6.9,4.3
			c1.8,0.6,3.3,0.7,4.3,0.2c1-0.6,1.8-2,2.1-4c0.4-2.3,0.3-5.3-0.3-8.6c-1-5.2-3.6-11.6-7.6-18.4c-3.7-6.4-7.9-11.8-11.9-15.4
			c-2.6-2.3-5.2-4-7.5-4.8c-2-0.7-3.6-0.8-4.6-0.3c-0.9,0.6-1.7,1.9-2,3.9c-0.4,2.2-0.3,5.1,0.4,8.3C48.5,56.1,51.2,62.8,54.9,69.2
			L54.9,69.2z"/>
	</g>
</g>
<g id="Layer_3">
	<g>
		
			<linearGradient id="SVGID_3_" gradientUnits="userSpaceOnUse" x1="44.044" y1="1013.9375" x2="83.8496" y2="1013.9375" gradientTransform="matrix(1 0 0 1 0 -950)">
			<stop  offset="0" style="stop-color:#D37E4C"/>
			<stop  offset="1" style="stop-color:#EA5057"/>
		</linearGradient>
		<path class="st2" d="M50.8,92.8c-1.2,0-2.2-0.3-3.1-0.8c-1.7-1-2.9-2.9-3.3-5.7c-0.5-2.6-0.4-5.7,0.3-9.1c0.6-3,1.5-6.2,2.9-9.6
			c1.4-3.4,3.1-6.9,5-10.4l0,0c3.9-6.7,8.5-12.6,13.1-16.6c2.7-2.3,5.4-4.1,7.9-5c2.7-1,5-1,6.7,0c1.8,1,3,3.1,3.4,6
			c0.5,2.8,0.3,6.2-0.5,9.9c-0.6,2.8-1.6,5.9-2.9,9.1c-1.3,3.2-2.9,6.5-4.8,9.7c-2,3.4-4,6.5-6.1,9.3c-2.2,2.9-4.4,5.3-6.6,7.2
			c-2.8,2.4-5.6,4.2-8.2,5.1C53.2,92.6,51.9,92.8,50.8,92.8z M77.2,37.9c-0.8,0-1.7,0.2-2.8,0.6c-2.1,0.8-4.5,2.3-7,4.4
			c-4.4,3.8-8.9,9.4-12.6,15.9l0,0c-3.8,6.5-6.5,13.4-7.6,19.1c-0.6,3.1-0.7,5.9-0.3,8.1c0.4,1.9,1,3.2,2,3.8c1,0.6,2.6,0.5,4.5-0.2
			c2.2-0.8,4.8-2.4,7.3-4.5c4-3.5,8.2-9,12.1-15.7c3.6-6.4,6.3-12.8,7.4-18c0.7-3.4,0.8-6.4,0.5-8.8c-0.4-2.1-1.1-3.5-2.1-4.1
			C78.4,38,77.8,37.9,77.2,37.9z"/>
	</g>
</g>
<g id="Layer_4">
	<g>
		
			<linearGradient id="SVGID_4_" gradientUnits="userSpaceOnUse" x1="31.45" y1="1013.9701" x2="96.45" y2="1013.9701" gradientTransform="matrix(1 0 0 1 0 -950)">
			<stop  offset="0" style="stop-color:#D37E4C"/>
			<stop  offset="1" style="stop-color:#EA5057"/>
		</linearGradient>
		<path class="st3" d="M64,77.2c-3.9,0-7.7-0.2-11.1-0.7c-3.6-0.5-6.8-1.2-9.5-2.1c-3.4-1.2-6.4-2.8-8.5-4.5c-2.2-1.9-3.4-4-3.4-6
			c0-1.9,1.1-3.9,3.2-5.7c2-1.7,4.7-3.2,8-4.3c2.8-1,6.1-1.8,9.7-2.3c3.7-0.6,7.6-0.8,11.5-0.8c7.8,0,15.2,1.1,21,3.1
			c3.4,1.1,6.2,2.7,8.2,4.3c2.2,1.8,3.3,3.8,3.3,5.8c0,2-1.2,4.1-3.5,6c-2.1,1.8-5.2,3.3-8.8,4.5c-2.7,0.9-5.9,1.6-9.4,2.1
			C71.4,77,67.7,77.2,64,77.2z M64,53.5c-7.5,0-14.9,1.1-20.3,3c-3,1-5.5,2.3-7.1,3.8c-1.5,1.3-2.2,2.6-2.2,3.6
			c0,1.1,0.9,2.5,2.4,3.9c1.8,1.6,4.4,3,7.6,4c5.1,1.7,11.9,2.7,19.7,2.7c7.3,0,14.2-0.9,19.3-2.6c3.3-1.1,6-2.4,7.9-4
			c1.6-1.4,2.5-2.7,2.5-3.9c0-1.1-0.8-2.4-2.3-3.6c-1.8-1.5-4.3-2.8-7.3-3.9C78.5,54.5,71.4,53.5,64,53.5z"/>
	</g>
</g>
</svg>
