<?xml version="1.0" encoding="utf-8"?>
<!-- Generator: Adobe Illustrator 25.1.0, SVG Export Plug-In . SVG Version: 6.00 Build 0)  -->
<svg version="1.1" id="Layer_1" xmlns="http://www.w3.org/2000/svg" xmlns:xlink="http://www.w3.org/1999/xlink" x="0px" y="0px"
	 viewBox="0 0 128 128" style="enable-background:new 0 0 128 128;" xml:space="preserve">
<style type="text/css">
	.st0{fill:url(#SVGID_1_);}

	.st0 {
		filter: drop-shadow(0 0 12px rgb(245, 85, 22, 0.3));
	}
</style>
<linearGradient id="SVGID_1_" gradientUnits="userSpaceOnUse" x1="-324.9635" y1="1524.2346" x2="-260.1695" y2="1524.2346" gradientTransform="matrix(6.975647e-02 0.9976 0.9976 -6.975647e-02 -1436.0942 460.0225)">
	<stop  offset="0" style="stop-color:#D37E4C"/>
	<stop  offset="1" style="stop-color:#EA5057"/>
</linearGradient>
<path class="st0" d="M96,63.3l-2.7-1.7c0-0.3-0.1-0.5-0.1-0.8l2.3-2.2c0.4-0.4,0.4-0.9,0.1-1.3c-0.1-0.1-0.2-0.2-0.4-0.3l-3-1.1
	c-0.1-0.3-0.2-0.5-0.3-0.8l1.9-2.6c0.2-0.3,0.2-0.6,0.1-0.9c-0.1-0.3-0.4-0.5-0.7-0.6l-3.1-0.5c-0.1-0.3-0.3-0.5-0.4-0.7l1.3-2.9
	c0.2-0.3,0.1-0.6-0.1-0.9s-0.5-0.4-0.8-0.4L87,45.7c-0.2-0.2-0.3-0.4-0.5-0.6l0.7-3.1c0.1-0.5-0.2-1-0.7-1.1c-0.2-0.1-0.3-0.1-0.4,0
	L83,41.5c-0.2-0.2-0.4-0.4-0.6-0.5l0.1-3.2c0-0.5-0.4-0.9-0.9-1c-0.2,0-0.3,0-0.4,0.1l-2.9,1.4c-0.3-0.2-0.5-0.3-0.7-0.4L77,34.8
	c-0.1-0.5-0.6-0.9-1.1-0.8c-0.2,0-0.3,0.1-0.4,0.2L73,36.1c-0.3-0.1-0.5-0.2-0.8-0.3l-1.1-3c-0.2-0.5-0.7-0.7-1.2-0.6
	c-0.2,0.1-0.3,0.2-0.4,0.3l-2.2,2.4c-0.3-0.1-0.5-0.1-0.8-0.1l-1.7-2.7c-0.3-0.4-0.9-0.6-1.3-0.3c-0.1,0.1-0.2,0.2-0.3,0.3l-1.7,2.7
	c-0.3,0-0.5,0.1-0.8,0.1l-2.2-2.4c-0.4-0.4-1-0.4-1.3-0.1c-0.1,0.1-0.2,0.2-0.3,0.4l-1.1,3c-0.3,0.1-0.5,0.2-0.8,0.3l-2.6-1.9
	c-0.4-0.3-1-0.2-1.3,0.2c-0.1,0.1-0.2,0.3-0.2,0.4L50.6,38c-0.3,0.1-0.5,0.3-0.7,0.4L47,37.1c-0.5-0.2-1,0-1.2,0.5
	c-0.1,0.2-0.1,0.3-0.1,0.4l0.1,3.2c-0.2,0.2-0.4,0.3-0.6,0.5l-3-0.7c-0.5-0.1-1,0.2-1.1,0.7c-0.1,0.2-0.1,0.3,0,0.4l0.7,3.1
	c-0.2,0.2-0.4,0.4-0.5,0.6L38,45.6c-0.5,0-0.9,0.4-1,0.9c0,0.2,0,0.3,0.1,0.4l1.3,2.9c-0.1,0.3-0.3,0.5-0.4,0.7l-3.1,0.5
	c-0.5,0.1-0.9,0.6-0.8,1.1c0,0.2,0.1,0.3,0.2,0.4l1.9,2.6c-0.1,0.3-0.2,0.5-0.3,0.8l-3,1.1c-0.5,0.2-0.7,0.7-0.6,1.2
	c0.1,0.2,0.2,0.3,0.3,0.4l2.3,2.2c-0.1,0.3-0.1,0.5-0.1,0.8l-2.7,1.7c-0.4,0.3-0.6,0.8-0.3,1.3c0.1,0.1,0.2,0.2,0.3,0.3l2.7,1.7
	c0,0.3,0.1,0.5,0.1,0.8l-2.3,2.2c-0.5,0.4-0.5,1-0.1,1.3c0.1,0.1,0.2,0.2,0.4,0.3l3,1.1c0.1,0.3,0.2,0.5,0.3,0.8l-1.9,2.6
	c-0.2,0.3-0.2,0.6-0.1,0.9s0.4,0.5,0.7,0.6l3.1,0.5c0.1,0.3,0.3,0.5,0.4,0.7l-1.3,2.9c-0.2,0.5,0,1,0.5,1.2c0.2,0.1,0.3,0.1,0.4,0.1
	l3.2-0.1c0.2,0.2,0.3,0.4,0.5,0.6l-0.7,3.1c-0.1,0.5,0.2,1,0.7,1.1c0.2,0.1,0.3,0.1,0.5,0l3.1-0.7c0.2,0.2,0.4,0.4,0.6,0.5l-0.1,3.2
	c0,0.5,0.4,0.9,0.9,1c0.2,0,0.3,0,0.4-0.1l2.9-1.3c0.3,0.2,0.5,0.3,0.7,0.4l0.5,3.1c0.1,0.3,0.3,0.6,0.6,0.7
	c0.3,0.1,0.6,0.1,0.9-0.1l2.6-1.9c0.3,0.1,0.5,0.2,0.8,0.3l1.1,3c0.2,0.5,0.7,0.7,1.2,0.6c0.2-0.1,0.3-0.2,0.4-0.3l2.2-2.3
	c0.3,0.1,0.5,0.1,0.8,0.1l1.7,2.7c0.3,0.5,0.8,0.6,1.3,0.3c0.1-0.1,0.2-0.2,0.3-0.3l1.7-2.7c0.3,0,0.5-0.1,0.8-0.1l2.2,2.3
	c0.4,0.4,0.9,0.4,1.3,0.1c0.1-0.1,0.2-0.2,0.3-0.4l1.1-3c0.3-0.1,0.5-0.2,0.8-0.3l2.6,1.9c0.4,0.3,1,0.2,1.3-0.3
	c0.1-0.1,0.2-0.3,0.2-0.4l0.5-3.1l0.7-0.4l2.9,1.3c0.5,0.2,1,0,1.2-0.5c0.1-0.2,0.1-0.3,0.1-0.4l-0.1-3.2c0.2-0.2,0.4-0.3,0.6-0.5
	l3.1,0.7c0.5,0.1,1-0.2,1.1-0.7c0.1-0.2,0.1-0.3,0-0.4L86.7,83c0.2-0.2,0.4-0.4,0.5-0.6l3.2,0.1c0.5,0,0.9-0.4,1-0.9
	c0-0.2,0-0.3-0.1-0.4l-1.3-2.9l0.4-0.7l3.1-0.5c0.3-0.1,0.6-0.3,0.7-0.6c0.2-0.3,0.1-0.6-0.1-0.9L92.2,73c0.1-0.3,0.2-0.5,0.3-0.8
	l3-1.1c0.5-0.2,0.7-0.7,0.5-1.2c-0.1-0.2-0.2-0.3-0.2-0.4l-2.3-2.2l0.1-0.8l2.7-1.7c0.5-0.3,0.6-0.8,0.3-1.3
	C96.3,63.4,96.2,63.3,96,63.3L96,63.3z M77.8,85.8c-1-0.2-1.7-1.2-1.5-2.3c0.2-1.1,1.2-1.7,2.3-1.5c1,0.2,1.7,1.2,1.5,2.3
	C79.9,85.4,78.8,86.1,77.8,85.8L77.8,85.8z M76.9,79.6C76,79.4,75,80,74.8,80.9l0,0l-1,4.5c-3.1,1.4-6.4,2.1-9.8,2.1
	c-3.4,0-6.8-0.8-10-2.2l-1-4.5c-0.2-0.9-1.1-1.5-2.1-1.3l-4,0.9c-0.7-0.8-1.4-1.6-2.1-2.4h19.3c0.2,0,0.4-0.1,0.4-0.3v-6.8
	c0-0.2-0.2-0.3-0.4-0.3h-5.7v-4.3h6.1c0.6,0,3,0.2,3.8,3.2c0.3,1,0.8,4.1,1.1,5c0.4,1.1,1.9,3.3,3.4,3.3h9.7c0.1,0,0.3,0,0.4-0.1
	c-0.7,0.9-1.4,1.7-2.2,2.6L76.9,79.6L76.9,79.6z M50.1,85.8c-1.1,0.2-2.1-0.6-2.2-1.6c-0.2-1,0.5-1.9,1.4-2.2c1-0.2,2.1,0.5,2.3,1.5
	C51.8,84.5,51.2,85.5,50.1,85.8L50.1,85.8z M42.8,55.9c0.5,1,0.1,2.1-0.9,2.6s-2.1,0.1-2.6-0.9c0-0.1-0.1-0.1-0.1-0.1
	c-0.4-1,0.1-2.1,1.1-2.5C41.3,54.6,42.3,55.1,42.8,55.9z M40.5,61.3l4.2-1.9c0.9-0.4,1.3-1.4,0.9-2.3l-0.9-2H48v15.1h-6.7
	C40.4,67.4,40.2,64.3,40.5,61.3L40.5,61.3z M58.7,59.8v-4.5h8c0.4,0,2.9,0.5,2.9,2.4c0,1.5-1.9,2.1-3.5,2.1
	C66.1,59.8,58.7,59.8,58.7,59.8z M87.7,63.9c0,0.6,0,1.2-0.1,1.7h-2.4c-0.3,0-0.4,0.2-0.4,0.4v1.1c0,2.6-1.5,3.2-2.8,3.3
	c-1.2,0.2-2.6-0.5-2.8-1.3c-0.7-4.1-2-5-3.9-6.5c2.4-1.5,4.9-3.8,4.9-6.7c0-3.2-2.2-5.2-3.7-6.3c-2.1-1.4-4.5-1.7-5.1-1.7H46.4
	c3.5-3.9,8.1-6.5,13.3-7.5l3,3.1c0.7,0.7,1.8,0.7,2.5,0.1l0,0l3.3-3.2c6.8,1.3,12.8,5.6,16.2,11.6l-2.3,5.1c-0.4,0.9,0,1.9,0.9,2.3
	l4.4,2C87.7,62.3,87.7,63.1,87.7,63.9z M62.6,37.9c0.8-0.7,2-0.7,2.7,0.1s0.7,2-0.1,2.7l0,0c-0.8,0.7-2,0.7-2.7-0.1
	C61.8,39.9,61.9,38.7,62.6,37.9z M85.2,56c0.4-1,1.5-1.4,2.5-1c1,0.4,1.4,1.5,1,2.5c0,0.1,0,0.1-0.1,0.1c-0.5,1-1.6,1.4-2.6,0.9
	C85.2,58.1,84.8,57,85.2,56z"/>
</svg>
