<?xml version="1.0" encoding="utf-8"?>
<!-- Generator: Adobe Illustrator 25.1.0, SVG Export Plug-In . SVG Version: 6.00 Build 0)  -->
<svg version="1.1" id="Layer_1" xmlns="http://www.w3.org/2000/svg" xmlns:xlink="http://www.w3.org/1999/xlink" x="0px" y="0px"
	 viewBox="0 0 128 128" style="enable-background:new 0 0 128 128;" xml:space="preserve">
<style type="text/css">
	.st0{fill:url(#SVGID_1_);}

	.st0 {
		filter: drop-shadow(0 0 12px rgb(245, 85, 22, 0.3));
	}
</style>
<g id="Background">
</g>
<g id="Layer_1_1_">
	
		<linearGradient id="SVGID_1_" gradientUnits="userSpaceOnUse" x1="-1697.2916" y1="1372.2283" x2="-1632.2102" y2="1372.2283" gradientTransform="matrix(-0.9659 0.2588 0.2588 0.9659 -1916.0891 -827.7421)">
		<stop  offset="0" style="stop-color:#D37E4C"/>
		<stop  offset="1" style="stop-color:#EA5057"/>
	</linearGradient>
	<path class="st0" d="M87.5,67.6c-2.3,0-4.2,0.6-5.9,1.4c-0.6-1.2-1.2-2.3-1.3-3c-0.1-0.9-0.3-1.5-0.1-2.6c0.2-1.1,0.8-2.6,0.8-2.8
		c0-0.1-0.2-0.7-1.4-0.7s-2.4,0.3-2.6,0.6c-0.1,0.4-0.4,1.1-0.6,2c-0.2,1.2-2.6,5.4-4,7.6c-0.5-0.9-0.8-1.7-0.9-2.2
		c-0.1-0.9-0.3-1.5-0.1-2.6c0.2-1.1,0.8-2.6,0.8-2.8c0-0.1-0.2-0.7-1.4-0.7c-1.3,0-2.4,0.3-2.6,0.6c-0.2,0.4-0.3,1.1-0.6,2
		c-0.3,0.8-3.5,7.9-4.3,9.7c-0.4,0.9-0.8,1.7-1,2.2c-0.3,0.5,0,0.1-0.1,0.1c-0.2,0.4-0.4,0.7-0.4,0.7l0,0c-0.2,0.3-0.4,0.6-0.5,0.6
		c-0.1,0-0.2-0.8,0-2c0.5-2.5,1.6-6.3,1.6-6.4c0-0.1,0.2-0.7-0.7-1.1c-0.9-0.4-1.2,0.2-1.3,0.2c-0.1,0-0.2,0.2-0.2,0.2s1-4.3-2-4.3
		c-1.9,0-4.5,2.1-5.7,3.9c-0.8,0.5-2.5,1.4-4.4,2.4c-0.7,0.4-1.4,0.8-2.1,1.1l-0.1-0.3c-3.6-3.9-10.3-6.6-10.1-11.8
		c0.1-1.9,0.8-6.9,12.9-13c10-5,17.9-3.6,19.3-0.6c2,4.3-4.2,12.3-14.6,13.5c-3.9,0.5-6-1.1-6.5-1.7c-0.6-0.6-0.6-0.6-0.8-0.5
		c-0.3,0.2-0.1,0.7,0,1c0.3,0.8,1.6,2.2,3.7,2.9c1.9,0.6,6.5,1,12.1-1.2c6.2-2.4,11.2-9.1,9.7-14.8c-1.4-5.7-11-7.6-19.9-4.4
		c-5.4,1.9-11.2,4.9-15.3,8.8c-5,4.6-5.7,8.7-5.4,10.3c1.2,6,9.4,9.9,12.7,12.8c-0.2,0.1-0.3,0.2-0.5,0.3c-1.6,0.8-7.9,4.1-9.5,7.6
		c-1.8,4,0.3,6.8,1.7,7.2c4.2,1.2,8.6-0.9,11-4.4c2.3-3.5,2.1-8.1,1-10.1l-0.1-0.1l1.3-0.8c0.8-0.5,1.7-0.9,2.4-1.3
		c-0.4,1.1-0.7,2.4-0.8,4.3c-0.2,2.2,0.7,5.1,2,6.3c0.5,0.5,1.2,0.5,1.5,0.5c1.4,0,2-1.1,2.7-2.5c0.9-1.7,1.7-3.7,1.7-3.7
		s-1,5.3,1.7,5.3c0.9,0,1.9-1.2,2.3-1.9l0,0c0,0,0-0.1,0.1-0.1c0.1-0.1,0.1-0.2,0.2-0.3l0,0c0.4-0.7,1.2-2.2,2.5-4.7
		c1.7-3.3,3.2-7.3,3.2-7.3s0.2,1,0.6,2.6c0.3,1,0.9,2,1.3,3c-0.4,0.5-0.6,0.8-0.6,0.8l0,0c-0.3,0.4-0.7,0.8-1,1.3
		c-1.3,1.5-2.8,3.3-3,3.8c-0.3,0.6-0.2,1,0.3,1.4c0.4,0.3,0.9,0.3,1.6,0.3c1.2-0.1,2-0.4,2.4-0.6c0.6-0.2,1.3-0.6,2.1-1.1
		c1.3-0.9,2.1-2.3,2-4.1c-0.1-1-0.4-2-0.8-2.8c0.1-0.2,0.2-0.3,0.4-0.5c2-2.9,3.6-6.1,3.6-6.1s0.2,1,0.6,2.6
		c0.3,0.8,0.7,1.7,1.1,2.6c-1.9,1.5-3,3.3-3.5,4.5c-0.8,2.2-0.2,3.2,0.9,3.4c0.5,0.1,1.2-0.1,1.8-0.4c0.7-0.2,1.4-0.6,2.2-1.1
		c1.3-0.9,2.5-2.3,2.4-4c-0.1-0.8-0.3-1.6-0.6-2.4c1.6-0.7,3.7-1,6.3-0.7c5.7,0.7,6.8,4.2,6.6,5.7s-1.4,2.3-1.8,2.5
		c-0.4,0.3-0.5,0.3-0.5,0.5c0.1,0.3,0.2,0.3,0.6,0.2c0.5-0.1,3-1.2,3.1-3.9C96.7,71.4,93.3,67.6,87.5,67.6L87.5,67.6z M43.8,82.4
		c-1.9,2.1-4.5,2.8-5.6,2.2c-1.2-0.7-0.7-3.7,1.5-5.9c1.4-1.3,3.2-2.5,4.4-3.3c0.3-0.2,0.7-0.4,1.1-0.7c0.1-0.1,0.1-0.1,0.1-0.1
		c0.1-0.1,0.2-0.1,0.3-0.2C46.6,77.5,45.8,80.2,43.8,82.4L43.8,82.4z M57.5,73.1c-0.7,1.6-2,5.7-2.8,5.4c-0.7-0.2-1.1-3.3-0.2-6.4
		c0.5-1.5,1.6-3.4,2.2-4.1c1-1.1,2.2-1.5,2.4-1C59.5,67.6,57.9,72.1,57.5,73.1z M68.8,78.4c-0.3,0.2-0.5,0.3-0.7,0.2
		c-0.1-0.1,0.1-0.3,0.1-0.3s1.4-1.5,2-2.2c0.3-0.4,0.7-0.9,1.1-1.4v0.2C71.3,76.7,69.5,78,68.8,78.4L68.8,78.4z M77.4,76.5
		c-0.2-0.2-0.2-0.6,0.5-2.1c0.3-0.6,0.9-1.5,1.9-2.5c0.1,0.4,0.2,0.8,0.2,1.1C80.1,75.3,78.4,76.1,77.4,76.5z"/>
</g>
</svg>
