<?xml version="1.0" encoding="utf-8"?>
<!-- Generator: Adobe Illustrator 25.1.0, SVG Export Plug-In . SVG Version: 6.00 Build 0)  -->
<svg version="1.1" id="Layer_1" xmlns="http://www.w3.org/2000/svg" xmlns:xlink="http://www.w3.org/1999/xlink" x="0px" y="0px"
	 viewBox="0 0 128 128" style="enable-background:new 0 0 128 128;" xml:space="preserve">
<style type="text/css">
	.st0{fill:url(#SVGID_1_);}

	.st0 {
		filter: drop-shadow(0 0 12px rgb(245, 85, 22, 0.3));
	}
</style>
<linearGradient id="SVGID_1_" gradientUnits="userSpaceOnUse" x1="-1278.2921" y1="1634.3313" x2="-1213.2921" y2="1634.3313" gradientTransform="matrix(-0.766 0.6428 0.6428 0.766 -1969.4963 -363.162)">
	<stop  offset="0" style="stop-color:#D37E4C"/>
	<stop  offset="1" style="stop-color:#EA5057"/>
</linearGradient>
<path class="st0" d="M31.5,64v32.5h65v-65h-65V64z M83.9,61.4c1.6,0.4,3,1.2,4.1,2.3c0.6,0.6,1.1,1.3,1.6,2.1c0,0.1-2.8,2-4.5,3
	c-0.1,0.1-0.3-0.2-0.6-0.6c-0.6-1.1-1.8-1.8-3.1-1.8c-2-0.2-3.2,0.9-3.2,2.6c0,0.4,0.1,0.8,0.3,1.2c0.4,0.9,1.2,1.5,3.7,2.5
	c4.6,2,6.7,3.3,7.9,5.2c1.4,2.1,1.7,5.5,0.7,7.9c-1,2.7-3.6,4.5-7.2,5.1c-1.7,0.2-3.3,0.2-4.9-0.1c-2.5-0.4-4.8-1.6-6.6-3.4
	c-0.6-0.7-1.8-2.4-1.7-2.5c0.2-0.2,0.4-0.3,0.6-0.4l2.4-1.4l1.9-1.1l0.4,0.6c0.7,0.9,1.5,1.8,2.4,2.3c2.1,1.1,4.9,0.9,6.3-0.3
	c1-0.9,1.1-2.4,0.4-3.6c-0.5-0.7-1.6-1.4-4.5-2.6c-3.3-1.5-4.8-2.3-6.1-3.7c-0.8-0.9-1.5-2-1.8-3.2c-0.3-1.4-0.3-2.8-0.1-4.2
	c0.7-3.2,3.1-5.5,6.7-6.2C80.6,61.1,82.3,61.1,83.9,61.4L83.9,61.4z M68.6,64.1v2.7h-8.4v24h-6v-24h-8.5v-2.6c0-0.9,0-1.8,0.1-2.7
	c0.1-0.1,5.2-0.1,11.4-0.1h11.3L68.6,64.1z"/>
</svg>
