<svg width="300" height="70" viewBox="0 0 300 70" fill="none" xmlns="http://www.w3.org/2000/svg">
<g filter="url(#filter0_d_5_58)">
<rect x="5" y="2" width="288" height="58" rx="8" fill="#181818" shape-rendering="crispEdges"/>
<g filter="url(#filter1_d_5_58)">
<path d="M85.0859 21.2049V20.347C85.0859 19.7926 85.3061 19.2609 85.6981 18.8689C86.0902 18.4768 86.6219 18.2566 87.1763 18.2566H116.442C116.996 18.2566 117.528 18.4768 117.92 18.8689C118.312 19.2609 118.532 19.7926 118.532 20.347V21.2049L101.809 31.6569L85.0859 21.2049ZM102.363 33.7761C102.197 33.8798 102.005 33.9348 101.809 33.9348C101.613 33.9348 101.421 33.8798 101.255 33.7761L85.0859 23.67V41.2511C85.0859 41.8056 85.3061 42.3373 85.6981 42.7293C86.0902 43.1213 86.6219 43.3416 87.1763 43.3416H116.442C116.996 43.3416 117.528 43.1213 117.92 42.7293C118.312 42.3373 118.532 41.8056 118.532 41.2511V23.67L102.363 33.7761Z" fill="#E4E4E4"/>
</g>
<g filter="url(#filter2_d_5_58)">
<path d="M148.926 30.8347H155.916V40.2318C154.934 40.5561 153.919 40.8079 152.869 40.9871C151.819 41.1664 150.641 41.256 149.335 41.256C147.432 41.256 145.819 40.8804 144.496 40.1294C143.182 39.3697 142.183 38.273 141.5 36.8391C140.817 35.3967 140.476 33.6598 140.476 31.6285C140.476 29.6739 140.856 27.9797 141.615 26.5458C142.375 25.1034 143.48 23.9896 144.931 23.2044C146.382 22.4106 148.14 22.0137 150.206 22.0137C151.222 22.0137 152.203 22.1162 153.151 22.321C154.106 22.5173 154.981 22.7904 155.775 23.1404L154.7 25.6753C154.068 25.3765 153.36 25.1248 152.574 24.9199C151.789 24.7151 150.974 24.6127 150.129 24.6127C148.789 24.6127 147.633 24.9029 146.66 25.4832C145.695 26.0636 144.953 26.883 144.432 27.9413C143.911 28.9911 143.651 30.233 143.651 31.6669C143.651 33.0581 143.86 34.2786 144.278 35.3284C144.697 36.3782 145.349 37.1976 146.237 37.7865C147.133 38.3669 148.29 38.6571 149.707 38.6571C150.415 38.6571 151.017 38.6187 151.512 38.5418C152.007 38.465 152.463 38.3797 152.882 38.2858V33.4592H148.926V30.8347ZM176.106 26.5586C177.693 26.5586 178.888 26.9683 179.69 27.7877C180.501 28.6071 180.906 29.9215 180.906 31.7309V40.9999H177.898V32.2686C177.898 31.1932 177.689 30.3823 177.271 29.8361C176.852 29.2899 176.216 29.0167 175.363 29.0167C174.168 29.0167 173.306 29.4008 172.777 30.169C172.256 30.9286 171.996 32.0339 171.996 33.4848V40.9999H168.987V32.2686C168.987 31.5516 168.893 30.9542 168.706 30.4762C168.526 29.9897 168.249 29.627 167.873 29.388C167.498 29.1405 167.024 29.0167 166.452 29.0167C165.624 29.0167 164.963 29.2045 164.468 29.5801C163.981 29.9556 163.632 30.5104 163.418 31.2444C163.205 31.9699 163.098 32.8618 163.098 33.9201V40.9999H160.09V26.8275H162.432L162.855 28.7351H163.021C163.311 28.2401 163.67 27.8346 164.097 27.5188C164.532 27.1945 165.014 26.9555 165.543 26.8019C166.073 26.6397 166.623 26.5586 167.195 26.5586C168.253 26.5586 169.145 26.7464 169.871 27.122C170.596 27.489 171.138 28.0523 171.497 28.8119H171.727C172.171 28.0437 172.79 27.4762 173.583 27.1092C174.377 26.7422 175.218 26.5586 176.106 26.5586ZM190.662 26.5586C192.454 26.5586 193.807 26.9555 194.72 27.7493C195.642 28.543 196.103 29.7806 196.103 31.462V40.9999H193.965L193.389 38.9899H193.287C192.885 39.502 192.471 39.9245 192.045 40.2574C191.618 40.5903 191.123 40.8378 190.56 40.9999C190.005 41.1706 189.326 41.256 188.524 41.256C187.679 41.256 186.924 41.1024 186.258 40.7951C185.592 40.4793 185.067 40.0013 184.683 39.3612C184.299 38.7211 184.107 37.9103 184.107 36.9287C184.107 35.4692 184.649 34.3725 185.733 33.6385C186.826 32.9045 188.473 32.499 190.675 32.4222L193.133 32.3326V31.5901C193.133 30.6085 192.902 29.9087 192.442 29.4904C191.989 29.0722 191.349 28.8631 190.521 28.8631C189.813 28.8631 189.126 28.9655 188.46 29.1704C187.794 29.3752 187.146 29.627 186.514 29.9257L185.541 27.8005C186.232 27.4335 187.018 27.1348 187.897 26.9043C188.784 26.6739 189.706 26.5586 190.662 26.5586ZM193.12 34.2274L191.289 34.2914C189.787 34.3426 188.733 34.5987 188.127 35.0595C187.521 35.5204 187.218 36.152 187.218 36.9543C187.218 37.6542 187.427 38.1663 187.845 38.4906C188.264 38.8064 188.814 38.9643 189.497 38.9643C190.538 38.9643 191.4 38.6699 192.083 38.081C192.774 37.4835 193.12 36.6087 193.12 35.4564V34.2274ZM203.324 26.8275V40.9999H200.315V26.8275H203.324ZM201.839 21.3992C202.3 21.3992 202.696 21.523 203.029 21.7705C203.371 22.018 203.541 22.4448 203.541 23.0507C203.541 23.6482 203.371 24.075 203.029 24.331C202.696 24.5785 202.3 24.7023 201.839 24.7023C201.361 24.7023 200.955 24.5785 200.622 24.331C200.298 24.075 200.136 23.6482 200.136 23.0507C200.136 22.4448 200.298 22.018 200.622 21.7705C200.955 21.523 201.361 21.3992 201.839 21.3992ZM210.66 40.9999H207.638V21.0792H210.66V40.9999Z" fill="#E4E4E4"/>
</g>
</g>
<defs>
<filter id="filter0_d_5_58" x="0" y="0" width="300" height="70" filterUnits="userSpaceOnUse" color-interpolation-filters="sRGB">
<feFlood flood-opacity="0" result="BackgroundImageFix"/>
<feColorMatrix in="SourceAlpha" type="matrix" values="0 0 0 0 0 0 0 0 0 0 0 0 0 0 0 0 0 0 127 0" result="hardAlpha"/>
<feOffset dx="1" dy="4"/>
<feGaussianBlur stdDeviation="3"/>
<feComposite in2="hardAlpha" operator="out"/>
<feColorMatrix type="matrix" values="0 0 0 0 0.0941176 0 0 0 0 0.0941176 0 0 0 0 0.0941176 0 0 0 0.6 0"/>
<feBlend mode="normal" in2="BackgroundImageFix" result="effect1_dropShadow_5_58"/>
<feBlend mode="normal" in="SourceGraphic" in2="effect1_dropShadow_5_58" result="shape"/>
</filter>
<filter id="filter1_d_5_58" x="74.019" y="7.18969" width="55.5804" height="47.2188" filterUnits="userSpaceOnUse" color-interpolation-filters="sRGB">
<feFlood flood-opacity="0" result="BackgroundImageFix"/>
<feColorMatrix in="SourceAlpha" type="matrix" values="0 0 0 0 0 0 0 0 0 0 0 0 0 0 0 0 0 0 127 0" result="hardAlpha"/>
<feOffset/>
<feGaussianBlur stdDeviation="5.53345"/>
<feComposite in2="hardAlpha" operator="out"/>
<feColorMatrix type="matrix" values="0 0 0 0 1 0 0 0 0 1 0 0 0 0 1 0 0 0 0.25 0"/>
<feBlend mode="normal" in2="BackgroundImageFix" result="effect1_dropShadow_5_58"/>
<feBlend mode="normal" in="SourceGraphic" in2="effect1_dropShadow_5_58" result="shape"/>
</filter>
<filter id="filter2_d_5_58" x="132.637" y="13.2401" width="85.8618" height="35.8549" filterUnits="userSpaceOnUse" color-interpolation-filters="sRGB">
<feFlood flood-opacity="0" result="BackgroundImageFix"/>
<feColorMatrix in="SourceAlpha" type="matrix" values="0 0 0 0 0 0 0 0 0 0 0 0 0 0 0 0 0 0 127 0" result="hardAlpha"/>
<feOffset/>
<feGaussianBlur stdDeviation="3.91953"/>
<feComposite in2="hardAlpha" operator="out"/>
<feColorMatrix type="matrix" values="0 0 0 0 1 0 0 0 0 1 0 0 0 0 1 0 0 0 0.25 0"/>
<feBlend mode="normal" in2="BackgroundImageFix" result="effect1_dropShadow_5_58"/>
<feBlend mode="normal" in="SourceGraphic" in2="effect1_dropShadow_5_58" result="shape"/>
</filter>
</defs>
</svg>
