<svg width="300" height="70" viewBox="0 0 300 70" fill="none" xmlns="http://www.w3.org/2000/svg">
<g filter="url(#filter0_d_5_62)">
<rect x="5" y="2" width="288" height="58" rx="8" fill="#181818" shape-rendering="crispEdges"/>
<g filter="url(#filter1_d_5_62)">
<path d="M92.6202 34.1576C92.6202 33.0627 91.788 32.1714 90.761 32.1714H75.9107C74.8837 32.1714 74.0515 33.0627 74.0515 34.1576C74.0515 35.2525 74.8822 36.1437 75.9107 36.1437H90.761C91.788 36.1452 92.6202 35.2539 92.6202 34.1576Z" fill="#E4E4E4"/>
<path d="M65.2953 39.812L71.6595 46.247C73.0953 47.6916 75.0799 48.3896 77.2712 48.3896C79.4624 48.3896 81.4471 47.6341 82.8858 46.1851L86.7046 42.2939C87.4572 41.5355 87.4306 40.2798 86.6471 39.4903C85.8635 38.7009 84.6181 38.6743 83.8671 39.4328L79.9184 43.2796C79.2367 43.9687 78.2923 44.2565 77.2491 44.2565C76.2058 44.2565 75.2629 43.9687 74.5782 43.2796L68.2362 36.8417C67.553 36.1526 67.2092 35.1447 67.2092 34.0926C67.2092 33.0405 67.553 32.0903 68.2362 31.4012L74.5591 24.9381C75.2423 24.249 76.2058 23.9864 77.2476 23.9864C78.2893 23.9864 79.2337 24.2741 79.9169 24.9632L83.8656 28.8086C84.6181 29.5685 85.8635 29.5419 86.6471 28.7525C87.4306 27.9616 87.4572 26.7059 86.7046 25.9474L82.8858 22.0578C81.9281 21.1045 80.7152 20.411 79.3562 20.0952L79.306 20.0849L82.9168 16.3915C83.6723 15.6331 83.6457 14.3759 82.8622 13.5864C82.0786 12.797 80.8318 12.7719 80.0778 13.5304L65.2953 28.4338C63.8596 29.8828 63.1085 31.8822 63.1085 34.0926C63.1085 36.3031 63.8596 38.3659 65.2953 39.812Z" fill="#E4E4E4"/>
</g>
<g filter="url(#filter2_d_5_62)">
<path d="M118.35 41.0225V22.3051H121.422V38.4107H129.373V41.0225H118.35ZM137.95 26.5812C139.213 26.5812 140.297 26.8415 141.202 27.3621C142.107 27.8828 142.802 28.621 143.289 29.577C143.775 30.5329 144.019 31.6766 144.019 33.0081V34.6212H134.558C134.592 35.9953 134.959 37.0537 135.659 37.7962C136.367 38.5388 137.357 38.91 138.629 38.91C139.534 38.91 140.344 38.8247 141.061 38.654C141.787 38.4748 142.534 38.2144 143.302 37.873V40.3183C142.593 40.6512 141.872 40.8944 141.138 41.0481C140.404 41.2017 139.525 41.2785 138.501 41.2785C137.11 41.2785 135.885 41.0097 134.826 40.472C133.777 39.9257 132.953 39.1149 132.356 38.0395C131.767 36.964 131.472 35.6283 131.472 34.0323C131.472 32.4447 131.741 31.0962 132.279 29.9867C132.816 28.8771 133.572 28.0321 134.545 27.4517C135.518 26.8714 136.653 26.5812 137.95 26.5812ZM137.95 28.8472C137.003 28.8472 136.235 29.1545 135.646 29.769C135.065 30.3835 134.724 31.284 134.622 32.4703H141.074C141.066 31.7619 140.946 31.1346 140.716 30.5884C140.494 30.0421 140.152 29.6154 139.691 29.3081C139.239 29.0009 138.659 28.8472 137.95 28.8472ZM153.057 26.5812C154.321 26.5812 155.404 26.8415 156.309 27.3621C157.214 27.8828 157.909 28.621 158.396 29.577C158.882 30.5329 159.126 31.6766 159.126 33.0081V34.6212H149.665C149.699 35.9953 150.066 37.0537 150.766 37.7962C151.474 38.5388 152.464 38.91 153.736 38.91C154.641 38.91 155.451 38.8247 156.168 38.654C156.894 38.4748 157.641 38.2144 158.409 37.873V40.3183C157.7 40.6512 156.979 40.8944 156.245 41.0481C155.511 41.2017 154.632 41.2785 153.608 41.2785C152.217 41.2785 150.992 41.0097 149.933 40.472C148.884 39.9257 148.06 39.1149 147.463 38.0395C146.874 36.964 146.579 35.6283 146.579 34.0323C146.579 32.4447 146.848 31.0962 147.386 29.9867C147.923 28.8771 148.679 28.0321 149.652 27.4517C150.625 26.8714 151.76 26.5812 153.057 26.5812ZM153.057 28.8472C152.11 28.8472 151.342 29.1545 150.753 29.769C150.172 30.3835 149.831 31.284 149.729 32.4703H156.181C156.173 31.7619 156.053 31.1346 155.823 30.5884C155.601 30.0421 155.259 29.6154 154.798 29.3081C154.346 29.0009 153.766 28.8472 153.057 28.8472ZM167.793 38.846C168.186 38.846 168.574 38.8119 168.958 38.7436C169.342 38.6668 169.692 38.5772 170.008 38.4748V40.7536C169.675 40.8987 169.244 41.0225 168.715 41.1249C168.186 41.2273 167.635 41.2785 167.063 41.2785C166.261 41.2785 165.54 41.1462 164.9 40.8816C164.26 40.6085 163.752 40.1434 163.376 39.4862C163.001 38.829 162.813 37.92 162.813 36.7592V29.1417H160.88V27.7974L162.954 26.7348L163.939 23.7006H165.834V26.85H169.893V29.1417H165.834V36.7208C165.834 37.4377 166.014 37.9712 166.372 38.3211C166.73 38.6711 167.204 38.846 167.793 38.846ZM181.172 24.648C180.276 24.648 179.473 24.8101 178.765 25.1345C178.065 25.4588 177.472 25.9282 176.985 26.5428C176.499 27.1488 176.128 27.887 175.871 28.7576C175.615 29.6196 175.487 30.5926 175.487 31.6766C175.487 33.1275 175.692 34.3779 176.102 35.4277C176.512 36.469 177.135 37.2713 177.971 37.8346C178.808 38.3894 179.866 38.6668 181.146 38.6668C181.94 38.6668 182.712 38.59 183.463 38.4363C184.214 38.2827 184.991 38.0736 185.793 37.809V40.4207C185.034 40.7195 184.266 40.9371 183.489 41.0737C182.712 41.2102 181.816 41.2785 180.8 41.2785C178.889 41.2785 177.301 40.8816 176.038 40.0879C174.783 39.2941 173.844 38.176 173.221 36.7336C172.607 35.2912 172.3 33.6012 172.3 31.6638C172.3 30.247 172.496 28.9496 172.888 27.7718C173.281 26.594 173.853 25.5783 174.604 24.7248C175.355 23.8628 176.281 23.2013 177.382 22.7404C178.492 22.271 179.759 22.0363 181.185 22.0363C182.123 22.0363 183.045 22.1429 183.95 22.3563C184.863 22.5612 185.708 22.8556 186.485 23.2397L185.409 25.7746C184.761 25.4673 184.082 25.2028 183.374 24.9808C182.665 24.7589 181.931 24.648 181.172 24.648ZM202.053 33.9042C202.053 35.0821 201.899 36.1276 201.592 37.0409C201.285 37.9541 200.836 38.7265 200.248 39.3581C199.659 39.9812 198.95 40.4591 198.122 40.792C197.294 41.1163 196.36 41.2785 195.319 41.2785C194.346 41.2785 193.454 41.1163 192.643 40.792C191.832 40.4591 191.128 39.9812 190.53 39.3581C189.942 38.7265 189.485 37.9541 189.161 37.0409C188.836 36.1276 188.674 35.0821 188.674 33.9042C188.674 32.3423 188.943 31.0194 189.481 29.9354C190.027 28.843 190.804 28.0108 191.811 27.4389C192.818 26.8671 194.017 26.5812 195.408 26.5812C196.714 26.5812 197.866 26.8671 198.865 27.4389C199.863 28.0108 200.644 28.843 201.208 29.9354C201.771 31.0279 202.053 32.3509 202.053 33.9042ZM191.772 33.9042C191.772 34.937 191.896 35.8204 192.144 36.5544C192.4 37.2884 192.792 37.8517 193.321 38.2443C193.851 38.6284 194.533 38.8204 195.37 38.8204C196.206 38.8204 196.889 38.6284 197.418 38.2443C197.947 37.8517 198.336 37.2884 198.583 36.5544C198.831 35.8204 198.955 34.937 198.955 33.9042C198.955 32.8715 198.831 31.9967 198.583 31.2797C198.336 30.5542 197.947 30.0037 197.418 29.6282C196.889 29.2441 196.202 29.0521 195.357 29.0521C194.111 29.0521 193.202 29.4703 192.63 30.3067C192.058 31.1432 191.772 32.3423 191.772 33.9042ZM210.272 41.2785C208.582 41.2785 207.225 40.664 206.201 39.4349C205.185 38.1974 204.677 36.3751 204.677 33.9682C204.677 31.5358 205.194 29.6965 206.226 28.4503C207.268 27.2042 208.638 26.5812 210.336 26.5812C211.053 26.5812 211.68 26.6793 212.218 26.8756C212.756 27.0634 213.217 27.3195 213.601 27.6438C213.993 27.9681 214.326 28.3309 214.599 28.732H214.74C214.697 28.4674 214.646 28.0876 214.586 27.5926C214.535 27.089 214.51 26.6238 214.51 26.1971V21.1017H217.531V41.0225H215.175L214.638 39.0893H214.51C214.254 39.499 213.929 39.8702 213.537 40.2031C213.153 40.5274 212.692 40.7877 212.154 40.9841C211.625 41.1804 210.997 41.2785 210.272 41.2785ZM211.117 38.8332C212.406 38.8332 213.315 38.4619 213.844 37.7194C214.373 36.9769 214.646 35.863 214.663 34.3779V33.9811C214.663 32.3935 214.407 31.1773 213.895 30.3323C213.383 29.4788 212.448 29.0521 211.091 29.0521C210.007 29.0521 209.179 29.4916 208.608 30.3707C208.044 31.2413 207.763 32.4575 207.763 34.0195C207.763 35.5814 208.044 36.7763 208.608 37.6042C209.179 38.4235 210.016 38.8332 211.117 38.8332ZM227.491 26.5812C228.755 26.5812 229.839 26.8415 230.743 27.3621C231.648 27.8828 232.344 28.621 232.83 29.577C233.317 30.5329 233.56 31.6766 233.56 33.0081V34.6212H224.099C224.133 35.9953 224.5 37.0537 225.2 37.7962C225.908 38.5388 226.898 38.91 228.17 38.91C229.075 38.91 229.885 38.8247 230.602 38.654C231.328 38.4748 232.075 38.2144 232.843 37.873V40.3183C232.134 40.6512 231.413 40.8944 230.679 41.0481C229.945 41.2017 229.066 41.2785 228.042 41.2785C226.651 41.2785 225.426 41.0097 224.368 40.472C223.318 39.9257 222.494 39.1149 221.897 38.0395C221.308 36.964 221.013 35.6283 221.013 34.0323C221.013 32.4447 221.282 31.0962 221.82 29.9867C222.358 28.8771 223.113 28.0321 224.086 27.4517C225.059 26.8714 226.194 26.5812 227.491 26.5812ZM227.491 28.8472C226.544 28.8472 225.776 29.1545 225.187 29.769C224.607 30.3835 224.265 31.284 224.163 32.4703H230.615C230.607 31.7619 230.487 31.1346 230.257 30.5884C230.035 30.0421 229.693 29.6154 229.233 29.3081C228.78 29.0009 228.2 28.8472 227.491 28.8472Z" fill="#E4E4E4"/>
</g>
</g>
<defs>
<filter id="filter0_d_5_62" x="0" y="0" width="300" height="70" filterUnits="userSpaceOnUse" color-interpolation-filters="sRGB">
<feFlood flood-opacity="0" result="BackgroundImageFix"/>
<feColorMatrix in="SourceAlpha" type="matrix" values="0 0 0 0 0 0 0 0 0 0 0 0 0 0 0 0 0 0 127 0" result="hardAlpha"/>
<feOffset dx="1" dy="4"/>
<feGaussianBlur stdDeviation="3"/>
<feComposite in2="hardAlpha" operator="out"/>
<feColorMatrix type="matrix" values="0 0 0 0 0.0941176 0 0 0 0 0.0941176 0 0 0 0 0.0941176 0 0 0 0.6 0"/>
<feBlend mode="normal" in2="BackgroundImageFix" result="effect1_dropShadow_5_62"/>
<feBlend mode="normal" in="SourceGraphic" in2="effect1_dropShadow_5_62" result="shape"/>
</filter>
<filter id="filter1_d_5_62" x="52.0416" y="1.91064" width="51.6455" height="57.5458" filterUnits="userSpaceOnUse" color-interpolation-filters="sRGB">
<feFlood flood-opacity="0" result="BackgroundImageFix"/>
<feColorMatrix in="SourceAlpha" type="matrix" values="0 0 0 0 0 0 0 0 0 0 0 0 0 0 0 0 0 0 127 0" result="hardAlpha"/>
<feOffset/>
<feGaussianBlur stdDeviation="5.53345"/>
<feComposite in2="hardAlpha" operator="out"/>
<feColorMatrix type="matrix" values="0 0 0 0 1 0 0 0 0 1 0 0 0 0 1 0 0 0 0.25 0"/>
<feBlend mode="normal" in2="BackgroundImageFix" result="effect1_dropShadow_5_62"/>
<feBlend mode="normal" in="SourceGraphic" in2="effect1_dropShadow_5_62" result="shape"/>
</filter>
<filter id="filter2_d_5_62" x="110.51" y="13.2626" width="130.888" height="35.8549" filterUnits="userSpaceOnUse" color-interpolation-filters="sRGB">
<feFlood flood-opacity="0" result="BackgroundImageFix"/>
<feColorMatrix in="SourceAlpha" type="matrix" values="0 0 0 0 0 0 0 0 0 0 0 0 0 0 0 0 0 0 127 0" result="hardAlpha"/>
<feOffset/>
<feGaussianBlur stdDeviation="3.91953"/>
<feComposite in2="hardAlpha" operator="out"/>
<feColorMatrix type="matrix" values="0 0 0 0 1 0 0 0 0 1 0 0 0 0 1 0 0 0 0.25 0"/>
<feBlend mode="normal" in2="BackgroundImageFix" result="effect1_dropShadow_5_62"/>
<feBlend mode="normal" in="SourceGraphic" in2="effect1_dropShadow_5_62" result="shape"/>
</filter>
</defs>
</svg>
