<svg width="300" height="70" viewBox="0 0 300 70" fill="none" xmlns="http://www.w3.org/2000/svg">
<g filter="url(#filter0_d_5_66)">
<rect x="5" y="2" width="288" height="58" rx="8" fill="#181818" shape-rendering="crispEdges"/>
<g filter="url(#filter1_d_5_66)">
<path d="M96.5497 14.9062H69.6789C69.3769 14.902 69.077 14.9573 68.7963 15.069C68.5156 15.1808 68.2597 15.3467 68.0432 15.5573C67.8267 15.768 67.6538 16.0192 67.5343 16.2967C67.4149 16.5741 67.3513 16.8724 67.3472 17.1745V44.3625C67.3513 44.6646 67.4149 44.9628 67.5343 45.2403C67.6538 45.5178 67.8267 45.769 68.0432 45.9797C68.2597 46.1903 68.5156 46.3562 68.7963 46.4679C69.077 46.5797 69.3769 46.635 69.6789 46.6308H96.5497C96.8518 46.635 97.1517 46.5797 97.4324 46.4679C97.713 46.3562 97.9689 46.1903 98.1854 45.9797C98.402 45.769 98.5749 45.5178 98.6943 45.2403C98.8137 44.9628 98.8773 44.6646 98.8815 44.3625V17.1745C98.8773 16.8724 98.8137 16.5741 98.6943 16.2967C98.5749 16.0192 98.402 15.768 98.1854 15.5573C97.9689 15.3467 97.713 15.1808 97.4324 15.069C97.1517 14.9573 96.8518 14.902 96.5497 14.9062V14.9062ZM76.9122 41.4597H72.1535V27.1836H76.9122V41.4597ZM74.5328 25.185C73.8765 25.185 73.2471 24.9242 72.7831 24.4602C72.319 23.9961 72.0583 23.3667 72.0583 22.7104C72.0583 22.0541 72.319 21.4247 72.7831 20.9607C73.2471 20.4966 73.8765 20.2359 74.5328 20.2359C74.8813 20.1964 75.2342 20.2309 75.5684 20.3372C75.9026 20.4436 76.2106 20.6193 76.4722 20.8529C76.7338 21.0865 76.9431 21.3727 77.0864 21.6928C77.2297 22.0129 77.3038 22.3597 77.3038 22.7104C77.3038 23.0612 77.2297 23.4079 77.0864 23.728C76.9431 24.0481 76.7338 24.3344 76.4722 24.568C76.2106 24.8016 75.9026 24.9773 75.5684 25.0836C75.2342 25.1899 74.8813 25.2245 74.5328 25.185V25.185ZM94.0752 41.4597H89.3165V33.7982C89.3165 31.8789 88.6344 30.6257 86.9054 30.6257C86.3703 30.6297 85.8493 30.7975 85.4125 31.1066C84.9757 31.4158 84.6442 31.8514 84.4626 32.3547C84.3385 32.7276 84.2847 33.1202 84.304 33.5127V41.4438H79.5453C79.5453 41.4438 79.5453 28.4685 79.5453 27.1677H84.304V29.1823C84.7363 28.4321 85.365 27.8142 86.1225 27.3949C86.88 26.9756 87.7375 26.771 88.6027 26.8029C91.7752 26.8029 94.0752 28.8492 94.0752 33.243V41.4597Z" fill="#E4E4E4"/>
</g>
<g filter="url(#filter2_d_5_66)">
<path d="M123.111 41V22.2827H126.183V38.3883H134.134V41H123.111ZM140.074 26.8276V41H137.066V26.8276H140.074ZM138.589 21.3993C139.05 21.3993 139.447 21.523 139.78 21.7706C140.121 22.0181 140.292 22.4448 140.292 23.0508C140.292 23.6483 140.121 24.075 139.78 24.3311C139.447 24.5786 139.05 24.7023 138.589 24.7023C138.111 24.7023 137.706 24.5786 137.373 24.3311C137.049 24.075 136.886 23.6483 136.886 23.0508C136.886 22.4448 137.049 22.0181 137.373 21.7706C137.706 21.523 138.111 21.3993 138.589 21.3993ZM151.776 26.5587C153.372 26.5587 154.614 26.9727 155.501 27.8006C156.398 28.6199 156.846 29.9386 156.846 31.7565V41H153.837V32.3199C153.837 31.2188 153.611 30.3952 153.158 29.849C152.706 29.2942 152.006 29.0168 151.059 29.0168C149.685 29.0168 148.729 29.4393 148.191 30.2843C147.662 31.1292 147.397 32.354 147.397 33.9586V41H144.389V26.8276H146.732L147.154 28.7479H147.321C147.628 28.2529 148.008 27.8475 148.46 27.5317C148.921 27.2074 149.433 26.9641 149.996 26.802C150.568 26.6398 151.161 26.5587 151.776 26.5587ZM164.066 21.0792V30.7067C164.066 31.142 164.049 31.62 164.015 32.1406C163.981 32.6527 163.947 33.135 163.913 33.5873H163.977C164.199 33.2886 164.463 32.9387 164.77 32.5375C165.086 32.1364 165.385 31.7864 165.667 31.4877L169.994 26.8276H173.451L167.779 32.9216L173.822 41H170.288L165.756 34.778L164.066 36.2246V41H161.058V21.0792H164.066ZM181.734 26.5587C182.997 26.5587 184.081 26.819 184.986 27.3397C185.89 27.8603 186.586 28.5986 187.072 29.5545C187.559 30.5104 187.802 31.6541 187.802 32.9856V34.5987H178.341C178.375 35.9729 178.742 37.0312 179.442 37.7738C180.151 38.5163 181.141 38.8876 182.412 38.8876C183.317 38.8876 184.128 38.8022 184.845 38.6315C185.57 38.4523 186.317 38.192 187.085 37.8506V40.2959C186.377 40.6287 185.656 40.872 184.922 41.0256C184.188 41.1792 183.309 41.2561 182.284 41.2561C180.893 41.2561 179.668 40.9872 178.61 40.4495C177.56 39.9032 176.737 39.0924 176.139 38.017C175.55 36.9416 175.256 35.6059 175.256 34.0098C175.256 32.4223 175.525 31.0737 176.062 29.9642C176.6 28.8546 177.355 28.0097 178.328 27.4293C179.301 26.8489 180.436 26.5587 181.734 26.5587ZM181.734 28.8248C180.786 28.8248 180.018 29.132 179.429 29.7465C178.849 30.3611 178.508 31.2615 178.405 32.4479H184.858C184.849 31.7395 184.73 31.1122 184.499 30.5659C184.277 30.0197 183.936 29.5929 183.475 29.2857C183.023 28.9784 182.442 28.8248 181.734 28.8248ZM195.957 41.2561C194.268 41.2561 192.91 40.6415 191.886 39.4125C190.871 38.1749 190.363 36.3527 190.363 33.9458C190.363 31.5133 190.879 29.674 191.912 28.4279C192.953 27.1818 194.323 26.5587 196.021 26.5587C196.738 26.5587 197.366 26.6569 197.903 26.8532C198.441 27.0409 198.902 27.297 199.286 27.6213C199.679 27.9457 200.012 28.3084 200.285 28.7095H200.426C200.383 28.445 200.332 28.0651 200.272 27.5701C200.221 27.0665 200.195 26.6014 200.195 26.1746V21.0792H203.216V41H200.861L200.323 39.0668H200.195C199.939 39.4765 199.615 39.8478 199.222 40.1806C198.838 40.505 198.377 40.7653 197.839 40.9616C197.31 41.1579 196.683 41.2561 195.957 41.2561ZM196.802 38.8108C198.091 38.8108 199 38.4395 199.529 37.6969C200.059 36.9544 200.332 35.8406 200.349 34.3555V33.9586C200.349 32.3711 200.093 31.1548 199.581 30.3099C199.068 29.4564 198.134 29.0296 196.777 29.0296C195.693 29.0296 194.865 29.4692 194.293 30.3483C193.73 31.2188 193.448 32.4351 193.448 33.997C193.448 35.5589 193.73 36.7538 194.293 37.5817C194.865 38.4011 195.701 38.8108 196.802 38.8108ZM207.838 41V22.2827H210.911V41H207.838ZM222.932 26.5587C224.528 26.5587 225.77 26.9727 226.658 27.8006C227.554 28.6199 228.002 29.9386 228.002 31.7565V41H224.994V32.3199C224.994 31.2188 224.767 30.3952 224.315 29.849C223.863 29.2942 223.163 29.0168 222.215 29.0168C220.841 29.0168 219.885 29.4393 219.348 30.2843C218.819 31.1292 218.554 32.354 218.554 33.9586V41H215.545V26.8276H217.888L218.311 28.7479H218.477C218.784 28.2529 219.164 27.8475 219.617 27.5317C220.077 27.2074 220.59 26.9641 221.153 26.802C221.725 26.6398 222.318 26.5587 222.932 26.5587Z" fill="#E4E4E4"/>
</g>
</g>
<defs>
<filter id="filter0_d_5_66" x="0" y="0" width="300" height="70" filterUnits="userSpaceOnUse" color-interpolation-filters="sRGB">
<feFlood flood-opacity="0" result="BackgroundImageFix"/>
<feColorMatrix in="SourceAlpha" type="matrix" values="0 0 0 0 0 0 0 0 0 0 0 0 0 0 0 0 0 0 127 0" result="hardAlpha"/>
<feOffset dx="1" dy="4"/>
<feGaussianBlur stdDeviation="3"/>
<feComposite in2="hardAlpha" operator="out"/>
<feColorMatrix type="matrix" values="0 0 0 0 0.0941176 0 0 0 0 0.0941176 0 0 0 0 0.0941176 0 0 0 0.6 0"/>
<feBlend mode="normal" in2="BackgroundImageFix" result="effect1_dropShadow_5_66"/>
<feBlend mode="normal" in="SourceGraphic" in2="effect1_dropShadow_5_66" result="shape"/>
</filter>
<filter id="filter1_d_5_66" x="56.2803" y="3.83905" width="53.6681" height="53.8589" filterUnits="userSpaceOnUse" color-interpolation-filters="sRGB">
<feFlood flood-opacity="0" result="BackgroundImageFix"/>
<feColorMatrix in="SourceAlpha" type="matrix" values="0 0 0 0 0 0 0 0 0 0 0 0 0 0 0 0 0 0 127 0" result="hardAlpha"/>
<feOffset/>
<feGaussianBlur stdDeviation="5.53345"/>
<feComposite in2="hardAlpha" operator="out"/>
<feColorMatrix type="matrix" values="0 0 0 0 1 0 0 0 0 1 0 0 0 0 1 0 0 0 0.25 0"/>
<feBlend mode="normal" in2="BackgroundImageFix" result="effect1_dropShadow_5_66"/>
<feBlend mode="normal" in="SourceGraphic" in2="effect1_dropShadow_5_66" result="shape"/>
</filter>
<filter id="filter2_d_5_66" x="115.272" y="13.2402" width="120.57" height="35.8549" filterUnits="userSpaceOnUse" color-interpolation-filters="sRGB">
<feFlood flood-opacity="0" result="BackgroundImageFix"/>
<feColorMatrix in="SourceAlpha" type="matrix" values="0 0 0 0 0 0 0 0 0 0 0 0 0 0 0 0 0 0 127 0" result="hardAlpha"/>
<feOffset/>
<feGaussianBlur stdDeviation="3.91953"/>
<feComposite in2="hardAlpha" operator="out"/>
<feColorMatrix type="matrix" values="0 0 0 0 1 0 0 0 0 1 0 0 0 0 1 0 0 0 0.25 0"/>
<feBlend mode="normal" in2="BackgroundImageFix" result="effect1_dropShadow_5_66"/>
<feBlend mode="normal" in="SourceGraphic" in2="effect1_dropShadow_5_66" result="shape"/>
</filter>
</defs>
</svg>
