<svg width="300" height="70" viewBox="0 0 300 70" fill="none" xmlns="http://www.w3.org/2000/svg">
<g filter="url(#filter0_d_5_54)">
<rect x="5" y="2" width="288" height="58" rx="8" fill="#181818" shape-rendering="crispEdges"/>
<g filter="url(#filter1_d_5_54)">
<path d="M136.037 41L130.647 25.3681H130.531C130.557 25.718 130.587 26.196 130.621 26.802C130.655 27.4079 130.685 28.0566 130.711 28.7479C130.736 29.4393 130.749 30.1008 130.749 30.7323V41H127.958V22.2827H132.273L137.458 37.2232H137.534L142.899 22.2827H147.2V41H144.269V30.5787C144.269 30.0069 144.277 29.3881 144.294 28.7223C144.32 28.0566 144.345 27.425 144.371 26.8276C144.405 26.2301 144.431 25.7521 144.448 25.3937H144.345L138.751 41H136.037ZM149.684 26.8276H152.961L155.868 34.9188C155.996 35.2858 156.111 35.6485 156.213 36.007C156.324 36.3569 156.418 36.7026 156.495 37.044C156.58 37.3854 156.649 37.7268 156.7 38.0682H156.777C156.862 37.6244 156.982 37.1294 157.135 36.5831C157.297 36.0283 157.477 35.4736 157.673 34.9188L160.464 26.8276H163.703L157.622 42.946C157.272 43.8678 156.841 44.653 156.329 45.3017C155.825 45.9589 155.228 46.4539 154.536 46.7868C153.845 47.1282 153.055 47.2989 152.168 47.2989C151.741 47.2989 151.37 47.2733 151.054 47.222C150.738 47.1794 150.469 47.1324 150.247 47.0812V44.6743C150.427 44.717 150.653 44.7554 150.926 44.7896C151.199 44.8237 151.481 44.8408 151.771 44.8408C152.309 44.8408 152.774 44.7341 153.166 44.5207C153.559 44.3073 153.892 44.0043 154.165 43.6117C154.438 43.2276 154.664 42.7881 154.843 42.2931L155.343 40.9616L149.684 26.8276ZM172.972 22.2827H178.541C180.956 22.2827 182.779 22.6326 184.008 23.3325C185.237 24.0323 185.851 25.24 185.851 26.9556C185.851 27.6725 185.723 28.3212 185.467 28.9016C185.22 29.4734 184.857 29.9471 184.379 30.3227C183.901 30.6897 183.312 30.9372 182.612 31.0652V31.1932C183.338 31.3213 183.982 31.5474 184.545 31.8718C185.117 32.1961 185.565 32.6613 185.89 33.2673C186.223 33.8732 186.389 34.6585 186.389 35.6229C186.389 36.7666 186.116 37.7396 185.57 38.5419C185.032 39.3442 184.259 39.9545 183.252 40.3727C182.254 40.7909 181.067 41 179.693 41H172.972V22.2827ZM176.045 30.0026H178.989C180.38 30.0026 181.345 29.7764 181.882 29.3241C182.42 28.8717 182.689 28.2102 182.689 27.3397C182.689 26.452 182.369 25.8119 181.729 25.4193C181.097 25.0267 180.09 24.8304 178.707 24.8304H176.045V30.0026ZM176.045 32.4863V38.4267H179.284C180.717 38.4267 181.725 38.1493 182.305 37.5945C182.885 37.0397 183.176 36.2887 183.176 35.3413C183.176 34.7609 183.043 34.2573 182.779 33.8306C182.523 33.4038 182.1 33.0752 181.511 32.8448C180.922 32.6058 180.129 32.4863 179.13 32.4863H176.045ZM192.97 41H189.948V21.0792H192.97V41ZM209.818 33.8818C209.818 35.0596 209.664 36.1052 209.357 37.0184C209.05 37.9317 208.601 38.7041 208.013 39.3357C207.424 39.9587 206.715 40.4367 205.887 40.7696C205.059 41.0939 204.125 41.2561 203.084 41.2561C202.111 41.2561 201.219 41.0939 200.408 40.7696C199.597 40.4367 198.893 39.9587 198.295 39.3357C197.706 38.7041 197.25 37.9317 196.925 37.0184C196.601 36.1052 196.439 35.0596 196.439 33.8818C196.439 32.3199 196.708 30.9969 197.246 29.913C197.792 28.8205 198.568 27.9883 199.576 27.4165C200.583 26.8446 201.782 26.5587 203.173 26.5587C204.479 26.5587 205.631 26.8446 206.63 27.4165C207.628 27.9883 208.409 28.8205 208.973 29.913C209.536 31.0055 209.818 32.3284 209.818 33.8818ZM199.537 33.8818C199.537 34.9145 199.661 35.7979 199.908 36.5319C200.165 37.2659 200.557 37.8292 201.086 38.2218C201.615 38.6059 202.298 38.798 203.135 38.798C203.971 38.798 204.654 38.6059 205.183 38.2218C205.712 37.8292 206.101 37.2659 206.348 36.5319C206.596 35.7979 206.719 34.9145 206.719 33.8818C206.719 32.849 206.596 31.9742 206.348 31.2572C206.101 30.5318 205.712 29.9813 205.183 29.6057C204.654 29.2216 203.967 29.0296 203.122 29.0296C201.876 29.0296 200.967 29.4478 200.395 30.2843C199.823 31.1207 199.537 32.3199 199.537 33.8818ZM217.32 47.2989C215.4 47.2989 213.927 46.9532 212.903 46.2619C211.879 45.5705 211.367 44.6018 211.367 43.3557C211.367 42.4851 211.64 41.7468 212.186 41.1408C212.732 40.5434 213.513 40.1294 214.529 39.899C214.145 39.7283 213.812 39.4637 213.53 39.1052C213.257 38.7382 213.121 38.3328 213.121 37.889C213.121 37.3598 213.27 36.9074 213.569 36.5319C213.868 36.1564 214.316 35.7936 214.913 35.4437C214.171 35.1279 213.573 34.6158 213.121 33.9074C212.677 33.1904 212.455 32.3497 212.455 31.3853C212.455 30.3611 212.673 29.4905 213.108 28.7736C213.543 28.0481 214.179 27.4976 215.016 27.122C215.852 26.7379 216.863 26.5459 218.05 26.5459C218.306 26.5459 218.583 26.563 218.882 26.5971C219.189 26.6227 219.471 26.6569 219.727 26.6995C219.991 26.7337 220.192 26.7721 220.329 26.8148H225.232V28.4919L222.825 28.94C223.056 29.2643 223.239 29.6356 223.376 30.0538C223.512 30.4635 223.58 30.9116 223.58 31.3981C223.58 32.8661 223.073 34.0226 222.057 34.8676C221.05 35.704 219.659 36.1222 217.883 36.1222C217.457 36.1052 217.043 36.071 216.641 36.0198C216.334 36.2076 216.099 36.4167 215.937 36.6471C215.775 36.869 215.694 37.1208 215.694 37.4025C215.694 37.6329 215.775 37.8207 215.937 37.9658C216.099 38.1024 216.338 38.2048 216.654 38.2731C216.979 38.3413 217.371 38.3755 217.832 38.3755H220.277C221.831 38.3755 223.017 38.7041 223.836 39.3613C224.656 40.0185 225.066 40.9829 225.066 42.2547C225.066 43.8678 224.4 45.1096 223.068 45.9802C221.737 46.8593 219.821 47.2989 217.32 47.2989ZM217.435 45.1864C218.485 45.1864 219.368 45.084 220.085 44.8792C220.802 44.6743 221.344 44.3799 221.711 43.9958C222.078 43.6203 222.262 43.1722 222.262 42.6515C222.262 42.1906 222.147 41.8364 221.916 41.5889C221.686 41.3414 221.34 41.1707 220.879 41.0768C220.418 40.9829 219.846 40.936 219.164 40.936H216.936C216.381 40.936 215.89 41.0213 215.464 41.192C215.037 41.3713 214.704 41.6273 214.465 41.9602C214.235 42.2931 214.119 42.6942 214.119 43.1636C214.119 43.8123 214.405 44.3116 214.977 44.6615C215.557 45.0115 216.377 45.1864 217.435 45.1864ZM218.024 34.1506C218.903 34.1506 219.556 33.9116 219.983 33.4337C220.41 32.9472 220.623 32.2644 220.623 31.3853C220.623 30.4294 220.401 29.7124 219.957 29.2344C219.522 28.7565 218.873 28.5175 218.011 28.5175C217.166 28.5175 216.522 28.7608 216.078 29.2472C215.643 29.7337 215.425 30.455 215.425 31.4109C215.425 32.2729 215.643 32.9472 216.078 33.4337C216.522 33.9116 217.171 34.1506 218.024 34.1506Z" fill="#E4E4E4"/>
</g>
<g filter="url(#filter2_d_5_54)">
<path d="M103.989 22.8359C104.517 23.5781 104.636 24.418 104.345 25.3555L98.8959 43.0508C98.6449 43.8841 98.1396 44.584 97.38 45.1504C96.6204 45.7168 95.8113 46 94.9526 46H76.6625C75.6453 46 74.6644 45.6517 73.7198 44.9551C72.7753 44.2585 72.118 43.4023 71.7481 42.3867C71.4311 41.5143 71.4179 40.6875 71.7085 39.9062C71.7085 39.8542 71.7283 39.6784 71.7679 39.3789C71.8076 39.0794 71.834 38.8385 71.8472 38.6562C71.8604 38.5521 71.8406 38.4121 71.7878 38.2363C71.7349 38.0605 71.7151 37.9336 71.7283 37.8555C71.7547 37.7122 71.8076 37.5755 71.8868 37.4453C71.9661 37.3151 72.0751 37.1621 72.2138 36.9863C72.3525 36.8105 72.4615 36.6576 72.5408 36.5273C72.8446 36.0326 73.1418 35.4368 73.4325 34.7402C73.7231 34.0436 73.9213 33.4479 74.027 32.9531C74.0666 32.8229 74.0699 32.6276 74.0369 32.3672C74.0038 32.1068 74.0005 31.9245 74.027 31.8203C74.0666 31.6771 74.1789 31.4948 74.3638 31.2734C74.5488 31.0521 74.6611 30.9023 74.7007 30.8242C74.9781 30.3555 75.2555 29.7565 75.533 29.0273C75.8104 28.2982 75.9755 27.7122 76.0284 27.2695C76.0416 27.1523 76.0251 26.944 75.9788 26.6445C75.9326 26.3451 75.9359 26.1628 75.9887 26.0977C76.0416 25.9284 76.1869 25.7298 76.4247 25.502C76.6625 25.2741 76.8078 25.1276 76.8606 25.0625C77.1116 24.724 77.3924 24.1738 77.7028 23.4121C78.0133 22.6504 78.1949 22.0221 78.2477 21.5273C78.261 21.4232 78.2411 21.2572 78.1883 21.0293C78.1355 20.8014 78.1222 20.6289 78.1487 20.5117C78.1751 20.4076 78.2345 20.2904 78.327 20.1602C78.4195 20.0299 78.5384 19.8802 78.6837 19.7109C78.829 19.5417 78.9413 19.4049 79.0206 19.3008C79.1263 19.1445 79.2352 18.946 79.3475 18.7051C79.4598 18.4642 79.5589 18.2363 79.6448 18.0215C79.7306 17.8066 79.8363 17.5723 79.9618 17.3184C80.0873 17.0645 80.2161 16.8561 80.3482 16.6934C80.4803 16.5306 80.6554 16.3776 80.8734 16.2344C81.0913 16.0911 81.3291 16.0163 81.5867 16.0098C81.8443 16.0033 82.1581 16.0391 82.528 16.1172L82.5082 16.1758C83.0102 16.0586 83.347 16 83.5188 16H98.5987C99.5763 16 100.329 16.3646 100.858 17.0938C101.386 17.8229 101.505 18.6693 101.214 19.6328L95.7848 37.3281C95.3092 38.8776 94.837 39.877 94.368 40.3262C93.899 40.7754 93.0502 41 91.8216 41H74.6016C74.2449 41 73.9939 41.0977 73.8486 41.293C73.7033 41.5013 73.6967 41.7812 73.8288 42.1328C74.1459 43.0443 75.097 43.5 76.6823 43.5H94.9724C95.3555 43.5 95.7254 43.3991 96.0821 43.1973C96.4388 42.9954 96.6699 42.7253 96.7756 42.3867L102.72 23.1094C102.813 22.8229 102.846 22.4518 102.819 21.9961C103.321 22.1914 103.711 22.4714 103.989 22.8359ZM82.9045 22.875C82.8516 23.0443 82.8649 23.1908 82.9441 23.3145C83.0234 23.4382 83.1555 23.5 83.3404 23.5H95.3885C95.5603 23.5 95.7287 23.4382 95.8938 23.3145C96.059 23.1908 96.1679 23.0443 96.2208 22.875L96.6369 21.625C96.6898 21.4557 96.6765 21.3092 96.5973 21.1855C96.518 21.0618 96.3859 21 96.201 21H84.1529C83.9812 21 83.8127 21.0618 83.6476 21.1855C83.4825 21.3092 83.3735 21.4557 83.3206 21.625L82.9045 22.875ZM81.2598 27.875C81.2069 28.0443 81.2201 28.1908 81.2994 28.3145C81.3787 28.4382 81.5108 28.5 81.6957 28.5H93.7438C93.9155 28.5 94.084 28.4382 94.2491 28.3145C94.4142 28.1908 94.5232 28.0443 94.5761 27.875L94.9922 26.625C95.045 26.4557 95.0318 26.3092 94.9526 26.1855C94.8733 26.0618 94.7412 26 94.5562 26H82.5082C82.3364 26 82.168 26.0618 82.0029 26.1855C81.8377 26.3092 81.7287 26.4557 81.6759 26.625L81.2598 27.875Z" fill="#E4E4E4"/>
</g>
</g>
<defs>
<filter id="filter0_d_5_54" x="0" y="0" width="300" height="70" filterUnits="userSpaceOnUse" color-interpolation-filters="sRGB">
<feFlood flood-opacity="0" result="BackgroundImageFix"/>
<feColorMatrix in="SourceAlpha" type="matrix" values="0 0 0 0 0 0 0 0 0 0 0 0 0 0 0 0 0 0 127 0" result="hardAlpha"/>
<feOffset dx="1" dy="4"/>
<feGaussianBlur stdDeviation="3"/>
<feComposite in2="hardAlpha" operator="out"/>
<feColorMatrix type="matrix" values="0 0 0 0 0.0941176 0 0 0 0 0.0941176 0 0 0 0 0.0941176 0 0 0 0.6 0"/>
<feBlend mode="normal" in2="BackgroundImageFix" result="effect1_dropShadow_5_54"/>
<feBlend mode="normal" in="SourceGraphic" in2="effect1_dropShadow_5_54" result="shape"/>
</filter>
<filter id="filter1_d_5_54" x="120.119" y="13.2402" width="112.952" height="41.8978" filterUnits="userSpaceOnUse" color-interpolation-filters="sRGB">
<feFlood flood-opacity="0" result="BackgroundImageFix"/>
<feColorMatrix in="SourceAlpha" type="matrix" values="0 0 0 0 0 0 0 0 0 0 0 0 0 0 0 0 0 0 127 0" result="hardAlpha"/>
<feOffset/>
<feGaussianBlur stdDeviation="3.91953"/>
<feComposite in2="hardAlpha" operator="out"/>
<feColorMatrix type="matrix" values="0 0 0 0 1 0 0 0 0 1 0 0 0 0 1 0 0 0 0.25 0"/>
<feBlend mode="normal" in2="BackgroundImageFix" result="effect1_dropShadow_5_54"/>
<feBlend mode="normal" in="SourceGraphic" in2="effect1_dropShadow_5_54" result="shape"/>
</filter>
<filter id="filter2_d_5_54" x="60.43" y="4.93" width="55.14" height="52.14" filterUnits="userSpaceOnUse" color-interpolation-filters="sRGB">
<feFlood flood-opacity="0" result="BackgroundImageFix"/>
<feColorMatrix in="SourceAlpha" type="matrix" values="0 0 0 0 0 0 0 0 0 0 0 0 0 0 0 0 0 0 127 0" result="hardAlpha"/>
<feOffset/>
<feGaussianBlur stdDeviation="5.535"/>
<feComposite in2="hardAlpha" operator="out"/>
<feColorMatrix type="matrix" values="0 0 0 0 1 0 0 0 0 1 0 0 0 0 1 0 0 0 0.25 0"/>
<feBlend mode="normal" in2="BackgroundImageFix" result="effect1_dropShadow_5_54"/>
<feBlend mode="normal" in="SourceGraphic" in2="effect1_dropShadow_5_54" result="shape"/>
</filter>
</defs>
</svg>
