<svg width="300" height="70" viewBox="0 0 300 70" fill="none" xmlns="http://www.w3.org/2000/svg">
<g filter="url(#filter0_d_5_44)">
<rect x="5" y="2" width="288" height="58" rx="8" fill="#181818" shape-rendering="crispEdges"/>
<g filter="url(#filter1_d_5_44)">
<path d="M57.1342 46.1688H33.7002V36.1112H30.3472V49.5219H60.481V36.1112H57.1342V46.1688ZM37.3944 35.188L38.086 31.8991L54.493 35.357L53.8015 38.6271L37.3944 35.188ZM39.5521 27.3506L40.9571 24.2917L56.15 31.3953L54.745 34.4338L39.5521 27.3506ZM43.7642 19.8903L45.9015 17.3133L58.7599 28.0625L56.6226 30.6395L43.7642 19.8903ZM52.0772 11.97L62.0723 25.4026L59.3873 27.4148L49.3954 13.9821L52.0772 11.97ZM37.0314 42.7954V39.4627H53.7952V42.7954H37.0314Z" fill="#E4E4E4"/>
</g>
<g filter="url(#filter2_d_5_44)">
<path d="M96.9163 36.9346C96.9163 38.0442 96.6432 39.0001 96.0969 39.8024C95.5592 40.6047 94.7825 41.2192 93.7669 41.646C92.7597 42.0727 91.5563 42.2861 90.1565 42.2861C89.4737 42.2861 88.8208 42.2477 88.1977 42.1709C87.5747 42.094 86.9858 41.9831 86.431 41.838C85.8847 41.6844 85.3854 41.5009 84.9331 41.2875V38.3941C85.6927 38.727 86.5419 39.03 87.4808 39.3031C88.4197 39.5677 89.3756 39.7 90.3486 39.7C91.1423 39.7 91.7995 39.5975 92.3202 39.3927C92.8493 39.1793 93.242 38.8806 93.498 38.4965C93.7541 38.1039 93.8821 37.6473 93.8821 37.1266C93.8821 36.5719 93.7327 36.1024 93.434 35.7184C93.1353 35.3343 92.6829 34.9844 92.0769 34.6686C91.4795 34.3442 90.7284 33.9986 89.8237 33.6315C89.2091 33.384 88.6202 33.1024 88.0569 32.7866C87.5021 32.4708 87.0071 32.0995 86.5718 31.6728C86.1365 31.246 85.7909 30.7424 85.5348 30.1621C85.2873 29.5731 85.1635 28.8818 85.1635 28.088C85.1635 27.0297 85.4153 26.125 85.9189 25.3739C86.431 24.6228 87.1479 24.0467 88.0697 23.6455C89 23.2444 90.084 23.0438 91.3216 23.0438C92.3031 23.0438 93.2249 23.1462 94.0869 23.3511C94.9575 23.5559 95.811 23.8461 96.6474 24.2217L95.6744 26.6926C94.9063 26.3768 94.1595 26.125 93.434 25.9372C92.717 25.7494 91.983 25.6556 91.2319 25.6556C90.5833 25.6556 90.0328 25.7537 89.5804 25.95C89.1281 26.1463 88.7824 26.4237 88.5434 26.7822C88.313 27.1321 88.1977 27.5503 88.1977 28.0368C88.1977 28.5831 88.33 29.044 88.5946 29.4195C88.8677 29.7865 89.286 30.1236 89.8493 30.4309C90.4211 30.7382 91.1551 31.0796 92.0513 31.4551C93.0841 31.8819 93.9589 32.33 94.6758 32.7994C95.4013 33.2688 95.9561 33.8321 96.3402 34.4893C96.7242 35.138 96.9163 35.9531 96.9163 36.9346ZM105.494 39.8536C105.887 39.8536 106.275 39.8195 106.659 39.7512C107.043 39.6744 107.393 39.5847 107.709 39.4823V41.7612C107.376 41.9063 106.945 42.03 106.416 42.1324C105.887 42.2349 105.336 42.2861 104.764 42.2861C103.962 42.2861 103.241 42.1538 102.601 41.8892C101.96 41.6161 101.453 41.1509 101.077 40.4937C100.702 39.8365 100.514 38.9275 100.514 37.7668V30.1493H98.5806V28.805L100.655 27.7424L101.64 24.7082H103.535V27.8576H107.594V30.1493H103.535V37.7284C103.535 38.4453 103.714 38.9788 104.073 39.3287C104.431 39.6786 104.905 39.8536 105.494 39.8536ZM116.146 27.5887C117.938 27.5887 119.291 27.9856 120.204 28.7794C121.126 29.5731 121.587 30.8107 121.587 32.4921V42.03H119.449L118.873 40.02H118.77C118.369 40.5321 117.955 40.9546 117.528 41.2875C117.102 41.6203 116.607 41.8679 116.043 42.03C115.489 42.2007 114.81 42.2861 114.008 42.2861C113.163 42.2861 112.407 42.1324 111.742 41.8252C111.076 41.5094 110.551 41.0314 110.167 40.3913C109.783 39.7512 109.591 38.9403 109.591 37.9588C109.591 36.4993 110.133 35.4026 111.217 34.6686C112.309 33.9345 113.956 33.5291 116.159 33.4523L118.617 33.3627V32.6201C118.617 31.6386 118.386 30.9387 117.925 30.5205C117.473 30.1023 116.833 29.8932 116.005 29.8932C115.297 29.8932 114.609 29.9956 113.944 30.2005C113.278 30.4053 112.629 30.6571 111.998 30.9558L111.025 28.8306C111.716 28.4636 112.501 28.1649 113.38 27.9344C114.268 27.704 115.19 27.5887 116.146 27.5887ZM118.604 35.2575L116.773 35.3215C115.271 35.3727 114.217 35.6287 113.611 36.0896C113.005 36.5505 112.702 37.1821 112.702 37.9844C112.702 38.6843 112.911 39.1964 113.329 39.5207C113.747 39.8365 114.298 39.9944 114.981 39.9944C116.022 39.9944 116.884 39.7 117.567 39.111C118.258 38.5136 118.604 37.6388 118.604 36.4865V35.2575ZM131.509 42.2861C130.169 42.2861 129.008 42.0258 128.027 41.5051C127.045 40.9845 126.29 40.1865 125.76 39.111C125.231 38.0356 124.967 36.67 124.967 35.0142C124.967 33.2901 125.257 31.8819 125.837 30.7894C126.418 29.6969 127.22 28.8903 128.244 28.3697C129.277 27.8491 130.459 27.5887 131.79 27.5887C132.635 27.5887 133.399 27.6741 134.082 27.8448C134.773 28.007 135.358 28.2075 135.836 28.4465L134.94 30.8534C134.419 30.64 133.886 30.4608 133.34 30.3157C132.793 30.1706 132.268 30.098 131.765 30.098C130.937 30.098 130.246 30.2815 129.691 30.6486C129.145 31.0156 128.735 31.5618 128.462 32.2873C128.197 33.0128 128.065 33.9132 128.065 34.9886C128.065 36.0299 128.201 36.909 128.475 37.6259C128.748 38.3344 129.153 38.8721 129.691 39.2391C130.229 39.5975 130.89 39.7768 131.675 39.7768C132.452 39.7768 133.148 39.6829 133.762 39.4951C134.377 39.3074 134.957 39.0641 135.503 38.7654V41.3771C134.966 41.6844 134.389 41.9105 133.775 42.0556C133.16 42.2093 132.405 42.2861 131.509 42.2861ZM141.84 22.1092V31.7368C141.84 32.1721 141.823 32.65 141.789 33.1707C141.755 33.6828 141.721 34.165 141.687 34.6173H141.751C141.973 34.3186 142.237 33.9687 142.545 33.5675C142.86 33.1664 143.159 32.8165 143.441 32.5177L147.768 27.8576H151.225L145.553 33.9516L151.596 42.03H148.063L143.53 35.808L141.84 37.2547V42.03H138.832V22.1092H141.84ZM170.787 32.6458C170.787 34.0882 170.604 35.4026 170.237 36.5889C169.878 37.7668 169.336 38.7824 168.611 39.636C167.885 40.4809 166.976 41.1338 165.884 41.5947C164.791 42.0556 163.511 42.2861 162.043 42.2861C160.549 42.2861 159.252 42.0556 158.151 41.5947C157.058 41.1338 156.149 40.4767 155.424 39.6231C154.707 38.7696 154.169 37.7497 153.811 36.5633C153.452 35.377 153.273 34.0626 153.273 32.6201C153.273 30.6912 153.589 29.0098 154.221 27.5759C154.861 26.1335 155.829 25.0154 157.127 24.2217C158.433 23.4194 160.08 23.0182 162.069 23.0182C164.015 23.0182 165.632 23.4151 166.921 24.2089C168.209 25.0026 169.174 26.1207 169.814 27.5631C170.463 28.997 170.787 30.6912 170.787 32.6458ZM156.499 32.6458C156.499 34.0882 156.696 35.3386 157.088 36.3969C157.481 37.4467 158.083 38.2575 158.893 38.8294C159.713 39.3927 160.763 39.6744 162.043 39.6744C163.332 39.6744 164.382 39.3927 165.192 38.8294C166.003 38.2575 166.601 37.4467 166.985 36.3969C167.369 35.3386 167.561 34.0882 167.561 32.6458C167.561 30.4522 167.121 28.7367 166.242 27.4991C165.372 26.253 163.98 25.6299 162.069 25.6299C160.788 25.6299 159.734 25.9116 158.906 26.4749C158.087 27.0382 157.481 27.8448 157.088 28.8946C156.696 29.9359 156.499 31.1863 156.499 32.6458ZM177.739 42.03L172.349 27.8576H175.537L178.456 36.1793C178.644 36.7084 178.814 37.2803 178.968 37.8948C179.122 38.5093 179.228 39.0257 179.288 39.4439H179.39C179.45 39.0086 179.565 38.488 179.736 37.882C179.907 37.2675 180.082 36.6999 180.261 36.1793L183.18 27.8576H186.355L180.965 42.03H177.739ZM194.152 27.5887C195.415 27.5887 196.499 27.8491 197.404 28.3697C198.308 28.8903 199.004 29.6286 199.49 30.5845C199.977 31.5405 200.22 32.6842 200.22 34.0156V35.6287H190.759C190.793 37.0029 191.16 38.0612 191.86 38.8038C192.568 39.5463 193.559 39.9176 194.83 39.9176C195.735 39.9176 196.546 39.8323 197.263 39.6616C197.988 39.4823 198.735 39.222 199.503 38.8806V41.3259C198.795 41.6588 198.074 41.902 197.34 42.0556C196.606 42.2093 195.726 42.2861 194.702 42.2861C193.311 42.2861 192.086 42.0172 191.028 41.4795C189.978 40.9333 189.154 40.1224 188.557 39.047C187.968 37.9716 187.674 36.6359 187.674 35.0398C187.674 33.4523 187.943 32.1038 188.48 30.9942C189.018 29.8847 189.773 29.0397 190.746 28.4593C191.719 27.8789 192.854 27.5887 194.152 27.5887ZM194.152 29.8548C193.204 29.8548 192.436 30.1621 191.847 30.7766C191.267 31.3911 190.926 32.2915 190.823 33.4779H197.276C197.267 32.7695 197.148 32.1422 196.917 31.5959C196.695 31.0497 196.354 30.6229 195.893 30.3157C195.441 30.0084 194.86 29.8548 194.152 29.8548ZM210.795 27.5887C211.034 27.5887 211.294 27.6015 211.576 27.6271C211.858 27.6528 212.101 27.6869 212.306 27.7296L212.024 30.5461C211.845 30.4949 211.623 30.4565 211.358 30.4309C211.102 30.4053 210.872 30.3925 210.667 30.3925C210.129 30.3925 209.617 30.4821 209.131 30.6614C208.644 30.8321 208.213 31.0966 207.838 31.4551C207.462 31.805 207.168 32.2446 206.954 32.7738C206.741 33.3029 206.634 33.9175 206.634 34.6173V42.03H203.613V27.8576H205.969L206.378 30.3541H206.519C206.801 29.8505 207.151 29.3896 207.569 28.9714C207.987 28.5532 208.465 28.2203 209.003 27.9728C209.549 27.7168 210.146 27.5887 210.795 27.5887ZM222.01 30.1493H218.566V42.03H215.558V30.1493H213.24V28.7026L215.558 27.8192V26.8334C215.558 25.6299 215.745 24.674 216.121 23.9656C216.505 23.2572 217.051 22.7494 217.76 22.4421C218.477 22.1263 219.33 21.9684 220.32 21.9684C220.969 21.9684 221.562 22.0239 222.1 22.1348C222.637 22.2373 223.09 22.3568 223.457 22.4933L222.676 24.7722C222.386 24.6783 222.061 24.5929 221.703 24.5161C221.344 24.4308 220.96 24.3881 220.551 24.3881C219.868 24.3881 219.364 24.6015 219.04 25.0282C218.724 25.455 218.566 26.078 218.566 26.8974V27.8576H222.01V30.1493ZM227.438 42.03H224.417V22.1092H227.438V42.03ZM244.274 34.9118C244.274 36.0896 244.12 37.1352 243.813 38.0484C243.506 38.9617 243.058 39.7341 242.469 40.3657C241.88 40.9888 241.171 41.4667 240.343 41.7996C239.516 42.1239 238.581 42.2861 237.54 42.2861C236.567 42.2861 235.675 42.1239 234.864 41.7996C234.053 41.4667 233.349 40.9888 232.751 40.3657C232.163 39.7341 231.706 38.9617 231.382 38.0484C231.057 37.1352 230.895 36.0896 230.895 34.9118C230.895 33.3499 231.164 32.027 231.702 30.943C232.248 29.8505 233.025 29.0184 234.032 28.4465C235.039 27.8747 236.238 27.5887 237.629 27.5887C238.935 27.5887 240.087 27.8747 241.086 28.4465C242.085 29.0184 242.866 29.8505 243.429 30.943C243.992 32.0355 244.274 33.3584 244.274 34.9118ZM233.993 34.9118C233.993 35.9445 234.117 36.8279 234.365 37.5619C234.621 38.2959 235.013 38.8593 235.542 39.2519C236.072 39.636 236.754 39.828 237.591 39.828C238.427 39.828 239.11 39.636 239.639 39.2519C240.168 38.8593 240.557 38.2959 240.804 37.5619C241.052 36.8279 241.176 35.9445 241.176 34.9118C241.176 33.8791 241.052 33.0042 240.804 32.2873C240.557 31.5618 240.168 31.0113 239.639 30.6357C239.11 30.2517 238.423 30.0596 237.578 30.0596C236.332 30.0596 235.423 30.4779 234.851 31.3143C234.279 32.1507 233.993 33.3499 233.993 34.9118ZM259.317 42.0172L257.524 35.4239C257.439 35.0996 257.337 34.707 257.217 34.2461C257.098 33.7852 256.978 33.3115 256.859 32.825C256.739 32.33 256.628 31.8733 256.526 31.4551C256.432 31.0369 256.359 30.7126 256.308 30.4821H256.206C256.163 30.7126 256.095 31.0369 256.001 31.4551C255.907 31.8733 255.8 32.33 255.681 32.825C255.561 33.32 255.442 33.8022 255.322 34.2717C255.211 34.7411 255.109 35.1423 255.015 35.4751L253.133 42.0172H249.83L245.861 27.8448H248.908L250.752 34.8862C250.871 35.3642 250.987 35.8805 251.098 36.4353C251.217 36.9901 251.319 37.5193 251.405 38.0228C251.49 38.5264 251.554 38.9403 251.597 39.2647H251.699C251.733 39.0342 251.78 38.744 251.84 38.3941C251.9 38.0356 251.968 37.6644 252.045 37.2803C252.122 36.8877 252.199 36.5207 252.275 36.1793C252.352 35.8293 252.425 35.5477 252.493 35.3343L254.669 27.8448H257.96L260.047 35.3343C260.14 35.6586 260.243 36.0683 260.354 36.5633C260.465 37.0498 260.563 37.5406 260.648 38.0356C260.742 38.5221 260.802 38.9275 260.828 39.2519H260.93C260.964 38.9617 261.024 38.5691 261.109 38.074C261.203 37.5705 261.31 37.037 261.429 36.4737C261.549 35.9019 261.672 35.3727 261.8 34.8862L263.682 27.8448H266.678L262.684 42.0172H259.317Z" fill="#E4E4E4"/>
</g>
</g>
<defs>
<filter id="filter0_d_5_44" x="0" y="0" width="300" height="70" filterUnits="userSpaceOnUse" color-interpolation-filters="sRGB">
<feFlood flood-opacity="0" result="BackgroundImageFix"/>
<feColorMatrix in="SourceAlpha" type="matrix" values="0 0 0 0 0 0 0 0 0 0 0 0 0 0 0 0 0 0 127 0" result="hardAlpha"/>
<feOffset dx="1" dy="4"/>
<feGaussianBlur stdDeviation="3"/>
<feComposite in2="hardAlpha" operator="out"/>
<feColorMatrix type="matrix" values="0 0 0 0 0.0941176 0 0 0 0 0.0941176 0 0 0 0 0.0941176 0 0 0 0.6 0"/>
<feBlend mode="normal" in2="BackgroundImageFix" result="effect1_dropShadow_5_44"/>
<feBlend mode="normal" in="SourceGraphic" in2="effect1_dropShadow_5_44" result="shape"/>
</filter>
<filter id="filter1_d_5_44" x="19.2803" y="0.903073" width="53.8589" height="59.6857" filterUnits="userSpaceOnUse" color-interpolation-filters="sRGB">
<feFlood flood-opacity="0" result="BackgroundImageFix"/>
<feColorMatrix in="SourceAlpha" type="matrix" values="0 0 0 0 0 0 0 0 0 0 0 0 0 0 0 0 0 0 127 0" result="hardAlpha"/>
<feOffset/>
<feGaussianBlur stdDeviation="5.53345"/>
<feComposite in2="hardAlpha" operator="out"/>
<feColorMatrix type="matrix" values="0 0 0 0 1 0 0 0 0 1 0 0 0 0 1 0 0 0 0.25 0"/>
<feBlend mode="normal" in2="BackgroundImageFix" result="effect1_dropShadow_5_44"/>
<feBlend mode="normal" in="SourceGraphic" in2="effect1_dropShadow_5_44" result="shape"/>
</filter>
<filter id="filter2_d_5_44" x="77.094" y="14.1293" width="197.423" height="35.9958" filterUnits="userSpaceOnUse" color-interpolation-filters="sRGB">
<feFlood flood-opacity="0" result="BackgroundImageFix"/>
<feColorMatrix in="SourceAlpha" type="matrix" values="0 0 0 0 0 0 0 0 0 0 0 0 0 0 0 0 0 0 127 0" result="hardAlpha"/>
<feOffset/>
<feGaussianBlur stdDeviation="3.91953"/>
<feComposite in2="hardAlpha" operator="out"/>
<feColorMatrix type="matrix" values="0 0 0 0 1 0 0 0 0 1 0 0 0 0 1 0 0 0 0.25 0"/>
<feBlend mode="normal" in2="BackgroundImageFix" result="effect1_dropShadow_5_44"/>
<feBlend mode="normal" in="SourceGraphic" in2="effect1_dropShadow_5_44" result="shape"/>
</filter>
</defs>
</svg>
